<svg xmlns="http://www.w3.org/2000/svg" height="190.41" viewBox="0 0 250 190.41252" width="250"><g transform="matrix(1.25 0 0 -1.25 -443.03 692.62)"><g><path d="m552.97 550.95c-0.59803 1.206-1.959 1.961-4.0432 2.2431-6.3519 0.86228-19.574-2.5888-37.116-12.716-9.4831-4.2379-22.62-12.877-37.376-27.442-1.7424-1.5398-3.5008-3.1312-5.273-4.7704-3.9657 2.1378-8.9804 3.0716-14.712 1.4544-3.3418 2.2471-7.1069 2.11-7.2201 2.118-1.0808 4.218-3.5882 8.4897-8.7917 11.575l-0.10927 0.0636-0.11722 0.0437c-1.3153 0.4967-2.9902 0.34372-3.7193-1.057-0.24637-0.31789-0.45896-0.71327-0.45896-1.2338v-0.0556c0.0238-0.83248 0.5126-1.5855 1.4544-2.2352l0.0854-0.0596 0.0973-0.0477c0.27617-0.13709 4.3412-2.2531 6.5406-7.3254-0.0239-0.006-3.4432-0.56227-7.1406-3.1789-3.1094 3.5147-7.6373 6.7035-13.922 7.0055-30.98 17.456-53.722 20.88-62.271 18.048-2.0186-0.66956-3.2624-1.6948-3.6935-3.0518-2.408-7.5618 16.844-20.16 36.997-29.292l0.86626-0.0834c15.032 2.4021 30.539-3.5107 38.574-6.5764 0.0179-0.0159 0.0378-0.0358 0.0517-0.0517 0.40531-0.99937 0.82056-1.9252 1.2398-2.7954-1.3133-0.66956-2.2173-1.7722-2.6604-2.6027-1.6173-0.38147-3.2425-1.3093-4.8379-2.2213-1.21-0.69341-2.4617-1.4087-3.7908-1.9709-4.4028-1.8656-5.2273-5.422-5.0485-7.1903-0.0338-0.0278-0.0675-0.0497-0.10133-0.0755l-0.1351-0.10729-0.10332-0.13709c-0.78082-1.0351-1.7087-3.3796-0.33974-5.5353-2.1974-0.94771-3.0061-2.6981-3.0061-2.6981-0.80864-1.6371-0.55234-2.8491-0.19471-3.5763 0.86029-1.7444 2.9624-2.2113 3.2008-2.259 0 0 2.563 2.8292 4.0491 1.7822 0.0636-1.4722-3.7412-1.9709-3.7412-1.9709s7.1804-1.3928 10.596 1.6292h0.30994c3.4392 0 5.9426 4.9412 6.4115 5.9326 0.40929 0.87023 1.2 1.8537 1.9391 2.6604 0.904-0.34372 1.8299-0.42518 2.7279-0.29007-0.0576-0.16093-0.0974-0.31591-0.11523-0.46094-3.9399-0.55433-4.3293-4.222-4.3293-4.222-0.44306-2.4577 2.3286-3.2326 2.3286-3.2326-1.0411 0.43909-0.80268 1.4504-0.80268 1.4504 0.63181 2.6306 3.9856 2.9008 3.9856 2.9008 2.4498 0.19868 2.0583-1.959 2.0583-1.959l-0.37749 0.20464c-0.0537-0.6338-1.8338-2.3524-1.8338-2.3524 2.8868 0.80864 3.7293 2.6544 3.9756 3.6101 0.0497-0.4371 0.0397-0.76493 0.0397-0.76493 1.4166 0.4073 2.2272 2.8213 2.4935 4.4624 0.0934 0.57419 0.42319 1.2477 0.81261 1.8835 0.92983-0.9954 2.0246-1.8676 3.312-2.5769 0.22252-0.12318 0.44504-0.23842 0.66757-0.34968l0.89804-0.0139c-19.298-13.041-6.9479-30.156-23.033-55.252-0.0695-0.0656-0.13709-0.12914-0.20663-0.19272-20.556-9.7871-46.853-13.445-46.853-13.445s28.896 1.5219 48.228 6.5406c9.0321-0.0874 40.366 2.0027 56.04 33.877 0 0 1.1702 2.3822 2.3166 6.1472 2.3643 1.5736 4.7167 3.9935 5.6247 7.6433l0.01 0.0358 0.006 0.0358c0.11921 0.62585 0.17087 1.214 0.15696 1.7683 2.6762 3.5028 1.9133 7.9413 0.44505 10.679-0.76294 1.4246-1.7405 5.5273-2.0544 6.9896l-0.0139 0.0656-0.0219 0.0636c-1.0808 3.2802-3.6935 2.6047-4.9472 2.2809-0.31591-0.0815-0.61194-0.12517-0.88811-0.151-0.16093 0.29008-0.33379 0.57618-0.51061 0.86228 0.0616 1.5815-0.52452 2.5213-1.0451 3.0339-0.58214 0.56823-1.2775 0.83049-1.8676 0.95168-0.31988 0.36558-0.67353 0.72321-1.0192 1.0848 0.98745 0.94175 1.8895 2.2332 1.7007 3.8862-0.1212 1.0729-0.86228 2.0742-2.4001 3.161-1.0689 0.75698-2.416 0.44306-2.416 0.44306s0.91195 5.4399-1.7544 8.9784c9.4891 5.7022 18.108 9.9222 25.704 12.573 8.289 2.8948 13.6 3.3001 16.594 3.1312l0.44902-0.0258 0.39935 0.2563c18.841 12.102 36.357 27.323 33.027 34.048m-118.97-70.34s-2.0802-1.4265-2.1001-1.4424c-0.1212-0.0715-0.4371-0.19074-0.83248-0.31988 0.19074 0.54836 0.34968 1.1067 0.4828 1.6411 0.0854 0.34571 0.28809 0.98149 0.71327 1.6113 0.76492-0.32783 1.6729-0.45101 2.5809-0.44108-0.38743-0.3616-0.67155-0.7391-0.8444-1.049" fill="#231f20"/><path d="m212.47 16.449c-7.28 1.284-15.91 5.112-25.44 14.137 6.15-3.02 9.77-3.592 9.77-3.592 5.43-6.027 13.24-8.01 16.71-8.621-0.01 0.003-0.03 0.003-0.04 0.006-0.01-0.514-0.13-0.967-0.36-1.342-0.15-0.226-0.36-0.424-0.64-0.588zm-9.08 0.822c-5.49 1.55-13.37 4.985-22.42 10.772l-0.01 0.014c-4.88 5.034-11.09 11.467-16.66 17.273 4.8-2.762 9.4-4.671 13.66-5.965 9.68-12.343 18.51-18.773 25.43-22.094zm8.62 3.948c-6.32 1.09-10.79 3.471-13.39 5.234v0.004c4.19-0.951 8.6-0.957 10.92-0.867 1.15-1.632 1.99-3.105 2.47-4.371zm-4.19 7.383c-10.51 0.027-19.58 3.372-24.31 5.679-0.07 0.037-0.16 0.075-0.22 0.11-1.17 1.313-2.35 2.701-3.54 4.181 8.02-2.203 14.66-2.25 18.82-1.902l0.93 0.08c3.07-2.744 5.75-5.379 8.02-7.83 0.1-0.104 0.21-0.217 0.3-0.318zm-20.8 1.988c-0.01 0.002-0.02 0.01-0.05 0.017l-0.01 0.01c0.02-0.01 0.04-0.017 0.06-0.027zm-12.36 2.521c-8.08 5.901-17.8 14.127-27.4 23.86 2.28-0.892 4.55-1.697 6.84-2.358 6.95-7.391 14.98-15.737 20.56-21.502zm-136.85 3c7.382 1.508 17.262 5.677 29.235 15.678 2.6 0.099 5.372 0.393 8.285 0.93-0.007-0.06-0.019-0.111-0.021-0.17-0.018-0.129 0.027-0.281 0.027-0.403 0-0.64 0.207-1.216 0.547-1.71-4.957-3.309-9.958-6.627-14.135-9.399-0.008-0.002-0.006-0.003-0.014-0.008-10.185-3.541-18.289-4.89-23.912-4.918h-0.012zm-6.078 1.5c-0.969 0.009-1.91 0.059-2.822 0.143-0.233 0.241-0.397 0.501-0.486 0.771-0.147 0.447-0.161 0.942-0.065 1.471-0.062 0.005-0.104 0.013-0.164 0.018 3.408-0.331 11.471-0.486 18.055 4.256 0 0 3.64-0.406 10.254 1.027-0.02-0.008-0.042-0.011-0.065-0.016-9.715-5.808-17.92-7.731-24.707-7.67zm161.03 2.606c-7.39-0.004-19.84 1.669-32.93 9.777-1.32 1.386-2.63 2.768-3.9 4.121 4.57-1.192 9.27-1.949 14.42-2.306 8.36-3.865 13.84-4.794 16.96-4.893 2.94-2.22 5.71-4.434 8.29-6.607-0.83-0.055-1.78-0.092-2.84-0.092zm-160.09 2.142c-0.743 0.023-1.511 0.07-2.303 0.147 0.703 1.108 1.926 2.501 3.299 3.803 2.208-0.721 6.466-1.925 10.721-2.096-2.514-0.961-6.514-2.015-11.717-1.854zm35.961 1.959c2.349 1.558 5.072 3.37 7.998 5.327 0.504-0.418 1.105-0.738 1.728-0.932-0.027 0.007-0.053 0.02-0.078 0.027-3.355-1.659-6.583-3.14-9.648-4.422zm-19.309 2.889c-3.903 0.061-8.365 0.589-13.156 1.969 2.787 1.972 6.08 4.028 9.785 6.09l0.877-0.33c3.932-1.493 10.343-3.254 18.543-3.184-1.44-1.177-2.854-2.264-4.242-3.279-2.691-0.65-6.788-1.344-11.807-1.266zm125.22 5.791c-1.41 0.122-2.95 0.29-4.55 0.488-3.43 1.811-7.47 4.515-11.58 7.393 0.22-0.017 0.45-0.038 0.66-0.053 5.69-3.186 10.84-5.757 15.47-7.828zm-107.51 1.57c-7.392 0.124-13.198 1.713-16.754 3.012 2.938 1.515 6.071 3.02 9.362 4.482 3.025-0.745 8.507-1.289 17.388 0.385 5.042-1.035 9.732-1.541 14.389-1.566-1.497-1.026-3.032-2.068-4.574-3.111-7.353-2.506-14.061-3.297-19.811-3.202zm96.393 0.786c-5.2 0.745-13.49 2.482-21.42 5.837-1.28 1.12-2.63 2.221-3.78 3.5l-2.02 3.192 2.76-2.258c4.07-2.25 10.69-3.6 14.59-4.221 3.58-2.381 6.86-4.374 9.87-6.05zm-78.139 0.103c2.702 1.823 5.41 3.663 7.992 5.434 1.078 0.025 2.162 0.101 3.245 0.173-3.852-3.7-7.998-5.125-11.237-5.607zm6.203 8.016c-2.831 0.106-5.374 0.339-7.433 0.607 2.24 0.606 4.659 1.344 7.232 2.211-0.027-0.141-0.055-0.283-0.072-0.424-0.089-0.785-0.03-1.557 0.228-2.295 0.013-0.034 0.033-0.065 0.045-0.099zm55.846 2.283c-2.77 0.643-7.89 1.94-10.57 2.99-0.93 1.237-0.77 2.408 4.1 1.807 0.61-0.418 3.62-2.704 6.47-4.797zm8.97 13.381c-3.61 0.154-4.58 2.73-4.58 2.73-1.17 1.391-1.42 9.681-11.05 11.651-5.67 1.487-5.95 6.324-5.95 6.324 0.33 0.025 2.02 0.728 2.74 1.968 0.02 0.03 0.03 0.05 0.04 0.07 0.14-0.59 0.32-1.65 0.06-2.536-0.37-1.317 0.57-2.817 2.82-3.192 2.26-0.377 8.08-2.631 9.95-7.888 1.54-4.297 2.95-8.462 5.97-9.127zm-57.341 0.767c-1.778 0.954-2.613 2.698-2.613 2.698 1.323 0 2.217 0.213 2.826 0.484 0.184-0.455 0.45-0.954 0.748-1.453-0.323-0.549-0.643-1.128-0.961-1.729zm-3.729 3.534c-2.932 0.105-5.868 3.052-10.388 4.968-6.008 2.546-5.178 6.711-5.178 6.711 3.755-1.987 6.458-2.057 8.363-1.451 1.043-0.166 1.998-0.38 2.42 0.102 0.475-0.78 1.066-2.15 1.518-3.975 0.278-1.115 1.223-3.895 3.955-5.547 0.179-0.107 0.406-0.392 0.572-0.668-0.423-0.112-0.843-0.156-1.262-0.14zm60.08 9.462c-1.55 2.193-1.84 4.771-1.79 6.157 0.08 2.133-0.66 3.703-1.53 4.423-0.88 0.72-1.97 1.91-1.97 1.91 1.53-0.44 2.8-0.58 3.87-0.5v-0.01c0.67-0.68 1.7-2.18 1.7-4.974 0-2.349-0.61-4.922-0.28-7.006zm-75.472 3.59c-0.348 0.231-0.7 0.488-1.055 0.776 0 0-2.341 3.104 0.254 5.804 0 0 1.041 0.92 3.07 1.3-3.991-2.69-3.143-6.082-2.269-7.88zm-4.772 10.29c-0.203 0.3-0.304 0.51-0.304 0.51-1.987 4.02 2.593 4.94 2.593 4.94-1.033-0.83-0.992-1.81-0.845-2.39 0.002-0.01-0.001-0.01 0.002-0.02-0.753-0.89-1.19-2.06-1.446-3.04zm89.144 3.48c-0.74 1.43-1.81 1.46-1.81 1.46-0.2 2.18 0.87 3.16 0.87 3.16 1.36-0.48 2.51-0.7 3.52-0.76l-0.02-0.02c-1.19-0.64-2.03-2.45-2.56-3.84z" transform="matrix(.8 0 0 -.8 354.43 554.1)" fill="#72cdf4"/><path d="m246.76 5.3418c-8.61 1.2641-19.46 5.1572-30.78 13.601-0.08 0.259-0.18 0.521-0.29 0.789 3.55-0.938 5.49-1.082 5.49-1.082 9.41-8.9925 22.59-9.8965 25.34-9.9859 0.45-1.2939 0.52-2.4034 0.24-3.3223zm-17.41 1.4473c-4.66 1.3336-10.38 3.4109-16.65 6.2519 1.39 0.179 2.38 0.648 2.97 1.41 4.99-3.454 9.58-5.9185 13.68-7.6619zm15.13 5.7459c-7.15 1.021-13.04 3.338-16.32 5.205v0.002c5.06-0.186 9.63 0.396 11.53 0.684 1.98-2.124 3.59-4.098 4.79-5.891zm-11.27 8.877c-7.89-0.02-14.85 1.347-20.14 2.899-1.62 2.304-3.79 4.823-6.33 7.443 6.4-0.345 11.67 0.19 15.39 0.853l1.24 0.217c5.16-3.961 9.64-7.788 13.28-11.314-1.16-0.063-2.31-0.095-3.44-0.098zm-213.24 7.885c3.487 0.874 7.355 2.197 11.572 4.107 2.126-0.283 4.762-0.307 7.861-0.011-7.423-2.183-14.123-3.485-19.433-4.096zm-14.864 1.48c-0.875-0.018-1.7296-0.011-2.5625 0.018-0.2012 1.031 0.0145 2.205 0.6504 3.512 2.3543-0.348 12.486-1.46 21.938 3.172 0.032-0.224 0.085-0.443 0.154-0.659 0.172-0.524 0.507-0.981 0.942-1.396-7.86-3.192-14.997-4.521-21.122-4.647zm206.7 4.657c-2.85-0.001-6.01 0.159-9.42 0.574-4.22 3.931-9.07 7.957-14.06 11.742 8.52-2.605 14.25-3.005 17.73-2.809 4.73-3.042 9.18-6.101 13.29-9.111-2.16-0.233-4.69-0.396-7.54-0.396zm-203.53 2.412c-0.864-0.019-1.7468-0.016-2.6464 0.013 1.423 1.664 3.29 3.45 5.5622 5.325 1.858-0.651 6.396-2.111 11.502-2.819-0.077 0.01-0.156 0.02-0.228 0.03-3.045-1.178-8.142-2.416-14.19-2.549zm94.389 1.849c-0.23 0.028-0.46 0.095-0.66 0.227 0.5 0.045 0.9 0.197 0.9 0.197 15.92 9.443 10.23 28.326 9.39 30.832 0.19 0.276 0.53 0.484 1.09 0.049 0 0 7.78-20.988-9.29-31.113 0 0-0.73-0.275-1.43-0.192zm-74.617 4.276c-4.155 0.121-8.714 0.636-13.52 1.81 4.058 3.008 8.998 6.177 14.633 9.364l1.188-0.448c2.138-0.809 4.843-1.669 8.009-2.404-4.363-2.836-7.963-5.675-10.31-8.322zm158.55 4.324c-1.68 0.109-3.98 0.462-7 1.353 1.04-0.01 2.07-0.029 3.14-0.011 1.35-0.497 2.63-0.94 3.86-1.342zm-104.06 1.951c-1.163-0.017-2.377 0.051-3.643 0.215 0 0-1.815 0.568-1.718 1.805 0.506-0.455 1.195-0.672 1.195-0.672 18.542-2.399 25.971 15.792 27.091 18.869 0.27 0.005 0.54-0.148 0.67-0.69 0 0-6.145-19.276-23.595-19.527zm-39.176 5.108c-3.834 0.568-7.163 1.365-9.848 2.177 4.446 2.375 9.222 4.741 14.286 7.035 4.097-0.998 11.53-1.704 23.597 0.661 2.312-0.47 4.559-0.824 6.782-1.129-0.937-0.192-1.874-0.382-2.776-0.534-7.865-1.323-12.737-0.81-15.441-0.144l-0.405 0.1-0.392-0.172c-5.514-2.454-10.945-5.186-15.803-7.994zm93.301 2.632c0.03 0.154 0.08 0.305 0.1 0.469 0.1 0.961-0.84 7.436-5.19 10.305-0.14 0.832-0.51 2.54-1.28 4.713 1.65-0.676 3.35-1.189 5.07-1.577-3.67-3.397 1.41-8.33 1.41-8.33l0.86-0.834c1.05-1.005 2.09-1.998 3.12-2.974-1.25-0.713-2.61-1.32-4.09-1.772zm-48.647 8.692c-3.049 0.057-5.857 0.236-8.334 0.484 4.279 1.15 9.039 2.661 14.256 4.561-0.849-1.135-1.682-2.459-2.211-3.825-1.256-0.432-2.496-0.84-3.711-1.22zm61.617 1.76c-1.42 0.879-2.85 1.781-4.3 2.712 1.37 0.09 2.75 0.24 4.12 0.481l1.35-1.264c-0.34-0.603-0.73-1.256-1.17-1.929zm6.66 10.697c-3.02 0.668-4.43 4.832-5.97 9.129-1.87 5.257-7.69 7.511-9.95 7.888-2.25 0.375-3.19 1.875-2.82 3.192 0.26 0.886 0.08 1.946-0.06 2.536-0.01-0.02-0.03-0.04-0.04-0.07 0.97 1.99 0.71 4.75 0.71 4.75 9.14 1.45 14.04-10.148 14.15-11.171 0.11-1.024 2.43-6.728 3.7-7.664 1.28-0.937 2.57-0.756 3.64-3.063 0.56-1.659 0.45-3.233-2.17-5.078-0.39-0.276-0.79-0.405-1.19-0.449zm-5.63 2.48c-1.54 1.925-7.75 2.479-7.75 2.479-7.81-0.38-8.82 2.949-8.82 2.949-0.32 0.628 0.2 1.975 0.2 1.975 1.97 3.963 7.09 0.359 7.09 0.359 4.73-1.674 5.09 0.418 5.09 0.418 2.14-0.941 2.66-4.867 4.19-8.18zm-50.752 0.02c-0.296 0.499-0.56 0.996-0.746 1.453 1.078 0.479 1.248 1.144 1.248 1.144 1.17 1.985-2.443 4.327-2.443 4.327 2.011 1.005 5.523 0.344 6.783-0.373-1.55-1.622-3.21-3.752-4.842-6.551zm-3.426 1.945c-0.169 0.273-0.391 0.561-0.57 0.668-2.732 1.652-3.678 4.427-3.959 5.545-0.452 1.823-1.041 3.194-1.518 3.977-0.422-0.485-1.375-0.271-2.418-0.102 2.794 0.889 3.852 3.238 3.852 3.238 2.086-0.099 3.045-4.731 3.146-5.14 0.102-0.405 0.737-3.096 3.205-4.532 1.426-0.829-0.05-2.853-0.05-2.853-0.579-0.407-1.136-0.654-1.688-0.801zm62.628 6.338c-1.75 0.705-2.96 1.788-3.81 2.982-0.33 2.084 0.28 4.657 0.28 7.006 0 2.794-1.02 4.294-1.7 4.974v0.01c3.69 0.28 4.84 3.27 5.16 5.73 0.03 0.27 0.05 0.54 0.07 0.8 0.02 0.31 0.03 0.59 0.03 0.86 0 0.15 0.01 0.31 0 0.44 0 0.14-0.01 0.24-0.01 0.35-0.03 0.41-0.06 0.81-0.06 0.81 0.16-0.07 0.29-0.16 0.44-0.24 0.13-0.07 0.27-0.14 0.4-0.22 0.14-0.1 0.26-0.21 0.38-0.31 0.11-0.1 0.24-0.18 0.34-0.28 0.13-0.13 0.24-0.28 0.36-0.42 0.07-0.09 0.16-0.18 0.23-0.28 0.1-0.12 0.17-0.26 0.25-0.4 0.09-0.13 0.17-0.25 0.25-0.39 0.07-0.14 0.13-0.29 0.19-0.43 0.07-0.14 0.13-0.27 0.19-0.42s0.1-0.3 0.15-0.46c0.05-0.15 0.1-0.3 0.15-0.46 0.03-0.14 0.06-0.28 0.1-0.43 0.03-0.17 0.07-0.33 0.11-0.5 0.03-0.17 0.05-0.34 0.08-0.52 0.02-0.14 0.04-0.28 0.05-0.42 0.03-0.18 0.04-0.37 0.05-0.55 0.01-0.13 0.03-0.26 0.03-0.39 0.02-0.21 0.02-0.41 0.02-0.61 0.01-0.09 0.01-0.19 0.01-0.28 0-0.35-0.02-0.67-0.03-1-0.02-0.26-0.02-0.53-0.04-0.77-0.02-0.28-0.05-0.49-0.08-0.73s-0.05-0.48-0.08-0.68-0.06-0.32-0.09-0.48c-0.03-0.13-0.05-0.3-0.07-0.4 0 0.01 0 0.02-0.01 0.02 0-0.04-0.02-0.11-0.02-0.14-0.43-1.65-0.12-4 0.19-8.071 0.31-4.068-3.51-3.701-3.51-3.701zm-54.5 0.826c-2.36 0.064-3.49 2.092-3.49 2.092 0.82-0.611 2.4-0.205 2.4-0.205 3.51 1.478 0.51 5.243-0.16 5.447-0.66 0.204-1.58 1.58-1.58 1.58 2.55 1.122 4.69 0.048 6.01-1.275 1.33-1.324 5.09-2.594 5.09-2.594-0.1-1.132-0.5-2.01-1-2.693-0.72-0.231-2.05-0.773-3.73-1.948-1.54 0.184-2.45-0.3-2.45-0.3-0.38-0.083-0.75-0.113-1.09-0.104zm-3.34 2.889c-1.516 0.097-2.794 1.2-3.253 1.543-0.611 0.459-3.156 1.121-3.156 1.121-0.561 0.561-2.449 1.932-2.449 1.932 0.934 2.721 0.078 6.071 0.078 6.071-2.801-3.89-7.625-2.1-7.625-2.1l-0.492 0.56 0.76 0.56c2.746-1.06 5.263 0.96 5.263 0.96 2.861 2.57 0.647 6.12 0.647 6.12 2.647 0 5.244-3.77 6.515-6.47 1.272-2.7 4.632-5.647 4.632-5.647 3.11-2.945 0.65-4.345 0.65-4.345-0.53-0.258-1.07-0.337-1.57-0.305zm-16.073 1.127c-1.509-0.017-3.346 0.387-5.367 1.73-0.874 1.798-1.721 5.19 2.267 7.88 0.835 0.15 1.818 0.21 2.991 0.07 0 0-6.823-2.08-4.381-6.665l0.662 0.661s0.015-0.01 0.017-0.012c0.192-0.46 0.943-1.565 3.747-1.875l-0.133 1.209c0.487-0.121 3.68-0.798 5.662 1.353 0.002 0.004 0.004 0.006 0.006 0.01 0.054 0.06 0.105 0.129 0.158 0.193 0.071 0.087 0.144 0.171 0.211 0.266 0.058 0.081 0.111 0.169 0.166 0.256 0.069 0.11 0.134 0.224 0.197 0.344 0.044 0.09 0.088 0.17 0.129 0.25 0.094 0.21 0.182 0.42 0.26 0.65 0.006 0.02 0.013 0.03 0.019 0.05 0 0-0.003-0.03-0.004-0.03-0.001-0.02-0.012-0.07-0.013-0.09-0.008-0.08-0.025-0.24-0.086-0.59-0.017-0.1-0.034-0.17-0.057-0.29-0.023-0.11-0.046-0.216-0.076-0.341-0.028-0.116-0.065-0.235-0.1-0.359-0.037-0.134-0.073-0.262-0.119-0.403-0.049-0.151-0.111-0.305-0.172-0.461-0.045-0.116-0.084-0.23-0.136-0.347-0.078-0.174-0.173-0.343-0.266-0.514-0.059-0.108-0.11-0.217-0.176-0.322-0.119-0.192-0.262-0.37-0.406-0.547-0.057-0.07-0.103-0.148-0.164-0.215-0.089-0.097-0.183-0.188-0.281-0.277-0.017-0.016-0.032-0.034-0.049-0.049-0.002-0.002-0.004-0.002-0.006-0.004-0.122-0.107-0.249-0.207-0.385-0.299 0 0-0.087-0.06-0.187-0.125-0.001-0.001-0.005-0.001-0.006-0.002-0.051-0.032-0.116-0.065-0.19-0.107-0.121-0.071-0.247-0.141-0.427-0.229-0.035-0.017-0.049-0.027-0.086-0.045 0.003 0.004 0.008 0.01 0.012 0.014-0.714-0.336-1.816-0.722-3.231-0.738zm82.963 0.775c-0.6-0.001-1.24 0.161-1.86 0.32-1.65 0.428-2.13 0.268-2.13 0.268-1.16 1.634 0.33 5.667 0.62 9.197 0.21 2.5-0.12 4.02-0.59 4.94 0.53 1.39 1.37 3.2 2.56 3.84l0.02 0.02c3.35-0.21 4.9 1.54 5.6 2.9 0.05 0.08 0.08 0.15 0.11 0.24 0.09 0.18 0.17 0.36 0.22 0.52 0.01 0.03 0.02 0.05 0.03 0.07 0.12 0.37 0.17 0.63 0.17 0.65l0.01 0.03c0.04-0.05 0.07-0.1 0.11-0.15 0.13-0.18 0.25-0.36 0.37-0.55 0.07-0.11 0.13-0.21 0.19-0.32 0.08-0.14 0.16-0.29 0.23-0.43 0.05-0.1 0.1-0.2 0.14-0.3 0.08-0.16 0.14-0.32 0.21-0.48 0.03-0.09 0.07-0.19 0.11-0.29 0.06-0.17 0.11-0.34 0.16-0.52 0.02-0.08 0.05-0.16 0.07-0.24v-0.01c0.06-0.23 0.11-0.46 0.15-0.7 0.07-0.4 0.11-0.81 0.13-1.21 0.01-0.07 0.01-0.14 0.01-0.21 0.02-0.39 0.01-0.78-0.01-1.16-0.03-0.48-0.09-0.94-0.18-1.39-0.02-0.15-0.06-0.28-0.09-0.42-0.06-0.31-0.13-0.6-0.21-0.88-0.05-0.16-0.09-0.3-0.14-0.45-0.04-0.12-0.08-0.26-0.12-0.38v0.05c-0.22-0.62-0.46-1.2-0.7-1.65-1.27-2.37-2.72-9.147-2.72-9.147-0.56-1.696-1.46-2.155-2.47-2.158zm-84.65 2.998s-1.16 0.385-1.801 1.115c0 0-0.3 1.372 0.986 2.272 0 0 0.815-1.29 0.815-3.387zm2.861 0.338c-0.828-0.028-1.397 0.094-1.397 0.094-0.042 0.944-0.445 2.125-0.445 2.125 3.815-1.932 6.711 0.42 6.711 0.42-1.391-2.13-3.49-2.592-4.869-2.639zm46.999 1.086c-7.2-0.03-7.38 6.243-7.38 6.243 1.53-4.93 5.91-4.93 5.91-4.93l0.63 2.3 1.52-1.88c3.48 6.74-1.18 11.94-1.18 11.94 5.55-3.56 4.24-9.81 4.24-9.81-0.56-3.7-3.74-3.863-3.74-3.863zm-2.55 2.753s-4.2 1.75-4.87 5.66c0 0 1.33-1.89 3.43-2.09 0 0 0.35-2.59 1.44-3.57zm0.54 0.87s-1.19 2.26-1.15 2.96c0 0 0.93 0.79 1 1.73 0 0 0.64-0.43 1.05-1.29 0 0 0.92 3.48 0.61 5.82 0 0 1.34-5.05 0.35-8.51l-1.13 1.69-0.73-2.4zm-45.024 0.45l0.498 0.58c-2.854 1.58-7.299-0.37-7.299-0.37-2.526 0.11-3.915 1.7-4.479 2.54 0.254 0.98 0.696 2.15 1.448 3.04 0 0 0.162-2.33 2.238-3.62 0 0 0.163 0.58 0.25 0.84 1.083-1.23 3.91-1.53 3.91-1.53l-0.109 0.64c1.271-0.03 2.211 0.15 2.211 0.15 4.326 0.88 2.576 4.41 2.576 4.41l-0.549-0.55c-0.407 1.07-4.33 3.15-4.33 3.15 7.423 0.06 7.779-4.55 7.779-4.55 1.048-4.12-4.144-4.73-4.144-4.73zm66.344 2.04c-0.18 0-0.28 0.01-0.28 0.01-6.62 0.58-7.22 6.54-7.22 6.54 2.23-4.49 6.09-4.59 6.09-4.59 0.91 0.23 1.48 1.03 1.48 1.03l0.13-1.74c2.08 0.59 2.65 2.15 2.65 2.15l0.48-1.38c3.48 4.16 0.9 9.32 0.9 9.32 1.19-1.79 1.63-3.84 1.63-3.84 0.28-6.99-4.63-7.49-5.86-7.5zm-69.893 1.49c-5.076 0.01-5.217 2.84-5.217 2.84 1.085-1.64 4.982-0.53 4.982-0.53l1.317-2.27c-0.384-0.03-0.744-0.04-1.082-0.04zm2.24 0.45l-0.92 2.1c0.544 0.08 1.004 0.62 1.004 0.62 1.547-0.75 1.631-1.67 1.631-1.67-0.417-0.88-1.715-1.05-1.715-1.05zm68.403 0.82c0.1 1.01-0.27 2.1-0.27 2.1-0.38-0.8-1.89-1.81-1.89-1.81-4.49 1.01-5.69 4.61-5.69 4.61 2.85-4.12 5.76-3.27 5.76-3.27 1.05 0.13 2.45 1.87 2.45 1.87l0.05-1.12c1.29 0.65 1.8 2.69 1.8 2.69l0.39-0.93c0.56 0.46 0.93 1.73 0.93 1.73 0.31-2.81-0.79-4.6-0.79-4.6-0.01 0.4-0.39 1.33-0.39 1.33-0.32-1.36-2.35-2.6-2.35-2.6zm-76.928 0.99c-0.003 0.01 0 0.02-0.002 0.02 0.002 0 0.002-0.01 0.004-0.02h-0.002zm90.028 5.63c-6.96 0.19-9.31 6.09-9.31 6.09 3.24-4.14 7.13-4 7.13-4 1.18 0.69 1.46 2.29 1.46 2.29l1.04-1.74c1.16 1.7 0.9 3.89 0.9 3.89l1.12-2.15c1.66 6.11-2.5 9.47-2.5 9.47 4.8-2.88 5.79-7.23 5.79-7.23 1.16-6.13-4.17-6.58-4.17-6.58-0.51-0.04-0.99-0.05-1.46-0.04zm-2.88 3.34c-4.93 1.16-6.95 4.34-6.95 4.34 3.48-3.2 6.79-2.35 6.79-2.35 0.79 1.37 0.69 2.65 0.69 2.65l1.15-1.15c0.62 1.32 0.09 3.78 0.09 3.78l1.01-0.57c0.29 1.22-0.36 3.39-0.36 3.39 2.57-3.85 2.28-6.96 2.28-6.96-0.51 1.2-1.27 1.8-1.27 1.8 0.15-0.97-0.49-3.31-0.49-3.31-0.12 0.73-0.94 1.42-0.94 1.42-0.48-2.76-2-3.04-2-3.04zm-66.228 55.86c-4.041 1.82-16.878 7.31-27.821 8.67h-0.009c-0.418 0.13-0.819 0.25-1.247 0.38 7.898-1.17 17.214-2.88 26.137-5.3l0.231-0.06h0.226c0.01 0 1.194-0.02 1.961-0.82 0.176-0.18 0.328-0.4 0.447-0.65 0.226-0.48 0.33-1.11 0.34-1.85-0.074-0.12-0.166-0.25-0.265-0.37z" transform="matrix(.8 0 0 -.8 354.43 554.1)" fill="#009ddc"/><path d="m240.56 2.8145c-6.64-0.0353-18.34 2.908-33.83 10.724 2.04-0.456 3.78-0.651 5.18-0.589 0.29 0.013 0.53 0.058 0.79 0.09 6.27-2.841 11.99-4.9168 16.65-6.248 5.5-2.3345 10.14-3.3803 13.75-3.7851-0.74-0.1211-1.59-0.1864-2.54-0.1914zm5.26 1.1757c-8.4 0.7525-18.31 3.9093-29.56 11.705 0.22 0.932 0.12 2.021-0.28 3.248 11.32-8.444 22.17-12.339 30.78-13.603-0.05-0.1591-0.09-0.3229-0.16-0.467-0.16-0.3303-0.43-0.6245-0.78-0.8828zm0.17 5.9375c-14.55 1.2463-22.43 8.2133-22.43 8.2133 1.54-0.221 3.09-0.344 4.6-0.399v-0.002c3.28-1.867 9.17-4.184 16.32-5.205 0.61-0.919 1.12-1.793 1.51-2.6073zm-34.93 4.3553c-5.12 0.096-15.03 3.349-28.13 11.731-0.62 0.65-1.29 1.332-1.97 2.043 0-0.005 0-0.007 0.01-0.012 9.05-5.789 16.92-9.224 22.42-10.774 3.37-1.614 6.28-2.5 8.63-2.964-0.3-0.021-0.62-0.03-0.96-0.024zm3.04 0.553c-7.71 1.358-16.93 5.564-27.13 15.773 0.03-0.01 0.04-0.014 0.05-0.019 0 0 0-0.004 0.01-0.004 9.53-9.028 18.16-12.851 25.44-14.135 0.28 0.164 0.49 0.36 0.64 0.588 0.23 0.375 0.35 0.826 0.36 1.338 0.01 0 0.03 0.001 0.04-0.004 0.61-0.107 1.1-0.174 1.41-0.211 0.29-1.127 0.24-2.053-0.19-2.736-0.14-0.229-0.35-0.426-0.63-0.59zm0.51 4.268c-10.69 1.842-16.08 7.371-16.08 7.371 0.03-0.008 0.06-0.013 0.09-0.02 2.6-1.763 7.07-4.148 13.4-5.236-0.49 1.266-1.33 2.737-2.49 4.371 0.38 0.012 0.71 0.03 0.96 0.045 2.02-2.509 3.43-4.726 4.12-6.531zm17.1 0.287c-6.49 0.005-12.22 0.961-16.9 2.179-0.48 0.872-1.06 1.789-1.74 2.742 6.04-1.775 14.27-3.306 23.58-2.802 0.62-0.604 1.23-1.2 1.8-1.783-2.32-0.236-4.57-0.338-6.74-0.336zm-22.05 7.261c-11.97-0.131-20.97 4.017-24.81 6.153-0.44 0.477-0.89 0.977-1.34 1.476 4.73-2.307 13.8-5.652 24.31-5.679-0.09 0.101-0.2 0.214-0.3 0.318 0.05 0 0.1-0.002 0.14-0.002 0.71-0.775 1.38-1.533 2-2.266zm-195.71 0.041c-3.48 0.025-6.2055 0.448-8.1209 1.143 3.626-0.234 8.3719 0.015 14.141 1.461 5.31 0.611 12.01 1.913 19.433 4.096 2.988 0.285 6.411 0.869 10.223 1.8-0.802-0.539-1.59-1.068-2.34-1.572-14.371-5.112-25.679-6.982-33.336-6.928zm165.09 1.903c-9.8 6.713-21.14 16.142-33.45 29.011 0.56-0.231 1.11-0.418 1.67-0.634 9.6-9.736 19.32-17.959 27.4-23.86 1.73-1.788 3.23-3.335 4.38-4.517zm-172.99 0.592c-0.9468 0.024-1.8727 0.078-2.7773 0.158-0.3154 0.328-0.5351 0.682-0.6543 1.054-0.0398 0.127-0.0469 0.263-0.0742 0.395 6.6658-0.234 14.701 0.982 23.684 4.631 0.596-0.569 1.405-1.049 2.48-1.406 0.124-0.04 0.263-0.075 0.395-0.112-8.76-3.661-16.425-4.895-23.053-4.72zm204.24 3.884c-1.59 0.008-3.28 0.071-5.05 0.203-0.92 0.904-1.87 1.816-2.85 2.735 6.82-0.83 12.64-0.647 16.96-0.18 0.83-0.608 1.66-1.213 2.46-1.814-2.83-0.503-6.75-0.967-11.52-0.944zm-175.4 1.496c-2.565 0.032-4.576 0.351-5.99 0.866 2.351-0.162 5.342-0.053 8.916 0.677 0.005-0.002 0.009-0.002 0.011-0.002 5.625 0.03 13.729 1.379 23.914 4.92 0.008 0.005 0.009 0.003 0.016 0.008-0.81-0.536-1.6-1.061-2.34-1.551-10.562-3.671-18.885-4.988-24.527-4.918zm-27.194 0.756c-1.2215 0.013-2.4935 0.076-3.8144 0.197 0.4718 0.746 1.0673 1.527 1.7578 2.336 7.1972-0.233 13.356 1.19 16.836 2.536 0.072-0.01 0.154-0.018 0.228-0.028 0.922-0.129 1.861-0.219 2.807-0.289-0.147-0.382-0.265-0.757-0.332-1.125-2.871-1.397-8.932-3.718-17.483-3.627zm45.454 0.494c0.24 0.164 0.525 0.353 0.789 0.53 0.678 0.198 1.371 0.408 2.072 0.627-0.966-0.4-1.92-0.784-2.861-1.157zm-23.149 0.584c-1.03 0.004-2.029 0.054-2.994 0.143-0.236 0.243-0.397 0.5-0.486 0.773-0.269 0.817-0.118 1.777 0.404 2.85 0.137-0.02 0.321-0.045 0.529-0.072 0.07-0.01 0.147-0.018 0.227-0.028 0.161-0.017 0.33-0.034 0.521-0.054 0.06-0.005 0.102-0.011 0.164-0.018-0.097-0.529-0.082-1.021 0.065-1.471 0.089-0.27 0.253-0.53 0.486-0.771 7.294-0.673 16.426 0.889 27.529 7.527 0.023 0.005 0.045 0.011 0.065 0.016-10.498-6.713-19.299-8.923-26.51-8.895zm163.81 1.469c-7.48 0.096-19.28 1.921-32.24 10.293-0.58 0.609-1.16 1.22-1.74 1.828 14.96-9.266 29.09-10.125 35.77-9.685 0.91-0.768 1.8-1.531 2.66-2.286-1.23-0.102-2.72-0.172-4.45-0.15zm-91.8 2.053c-0.18 0.117-0.33 0.29-0.43 0.531 0 0-1.03 0.794 0.76 2.024 0 0 15.18 7.396 9.74 27.972 0 0 0.06 0.274 0.22 0.502 0.84-2.506 6.53-21.393-9.39-30.836 0 0-0.41-0.151-0.9-0.193zm-70.867 0.963c-1.175-0.013-2.419 0.036-3.727 0.162 1.053 1.659 2.881 3.543 5.357 5.562 0.239-0.084 0.541-0.188 0.891-0.302-1.376-1.302-2.598-2.695-3.301-3.803 6.336-0.611 11.148 0.612 14.024 1.707 0.005 0 0.034-0.012 0.064-0.022-0.235-0.152-5.088-3.215-13.308-3.304zm32.576 0.179c1.299 0.857 2.982 1.973 4.912 3.252 3.065 1.282 6.293 2.761 9.648 4.422 0.025-0.01 0.05-0.022 0.075-0.029l0.154-0.047 0.158-0.019c0.489-0.065 0.959-0.098 1.434-0.135-5.876-3.043-11.352-5.499-16.381-7.444zm-37.303 0.782c-4.252 0.283-8.909 1.016-13.826 2.457 0.621 0.486 1.275 0.98 1.945 1.476 4.803-1.174 9.365-1.687 13.518-1.808-0.641-0.723-1.195-1.435-1.637-2.125zm21.07 3.605c-3.998-0.011-8.659 0.482-13.693 1.969 0.38 0.295 0.776 0.596 1.184 0.896 0.233 0.172 0.475 0.347 0.716 0.518 0.157 0.112 0.31 0.226 0.471 0.34 10.95-3.154 20.18-1.858 24.963-0.703-0.06-0.045-0.122-0.088-0.184-0.133-0.65-0.475-1.299-0.939-1.937-1.381-2.333-0.643-6.379-1.492-11.52-1.506zm131.62 5.592c-1.19 0.022-2.55 0.073-4.03 0.162-0.93 0.363-1.9 0.757-2.93 1.209-0.68 0.303-1.41 0.67-2.17 1.07 1.61-0.198 3.15-0.364 4.55-0.486 1.59-0.708 3.12-1.362 4.58-1.955zm-97.385 0.33c-1.074-0.002-2.189 0.069-3.348 0.219 0 0-0.687 0.217-1.193 0.672 0.005 0.082-0.29 1.543 1.935 1.412 0 0 16.983-3.631 25.611 16.48 0 0 0.37 0.3 0.74 0.305-1.05-2.885-7.647-19.055-23.745-19.088zm-17.481 1.477c-7.647 0.097-13.559 1.774-17.053 3.099 1.001 0.544 2.029 1.088 3.082 1.629 6.321-2.31 19.759-5.537 36.565 0.19-0.708-0.482-1.416-0.963-2.129-1.442-1.118-0.395-2.223-0.748-3.311-1.066-1.082 0.054-1.778 0.186-1.902 0.211l-0.137 0.027s-2.676 0.142-3.677-1.619c-4.128-0.791-7.962-1.074-11.438-1.029zm103.52 0.203c-5.19 0.549-14.12 2.085-23.9 6.386-0.57 0.609-1.21 1.182-1.86 1.75 7.93-3.355 16.22-5.092 21.42-5.837 1.51-0.842 2.96-1.611 4.34-2.299zm-127.62 0.365c-3.82 0.795-6.952 1.792-9.284 2.674 0.865 0.479 1.768 0.958 2.663 1.435 2.684-0.809 6.013-1.606 9.847-2.177-1.107-0.641-2.186-1.286-3.226-1.932zm57.209 8.488c-3.904 0.02-4.09 3.102-4.09 3.102-0.055 2.92 4.398 7.756 4.599 7.974-0.007-0.047-0.012-0.089-0.017-0.099-0.862-1.309-4.105-6.533-2.518-8.776 0 0 1.325-0.871 3.004-1.089-0.325-0.388-0.648-0.762-0.978-1.112zm-4.983 0.131c-5.193-0.027-9.559 0.476-12.582 0.981 1.349 0.3 2.774 0.655 4.264 1.06 2.059-0.266 4.604-0.503 7.437-0.609 0.201-0.534 0.499-1.01 0.881-1.432zm58.523 1.158c-2.69 0.395-7.03 1.289-11.6 3.285 0 0-1.7 1.157-2.53 2.262 2.68-1.05 7.8-2.347 10.57-2.99 1.31-0.959 2.58-1.876 3.56-2.557zm-22.04 1.239s-1.79 0.213-3.05 1.785c0.08 0.551 0.63 5.666-1.41 11.172 3.07-3.934 4.45-7.963 4.46-12.957zm-46.225 0.685c-2.881 0.241-5.405 0.572-7.461 0.91 1.448 0.333 2.956 0.709 4.524 1.131v-0.002c2.478-0.248 5.286-0.428 8.335-0.482-1.845-0.576-3.655-1.105-5.398-1.557zm16.236 4.949c-0.509 4.12 0.288 9.717 5.389 14.426-0.48-0.37-4.312-5.91-3.1-11.58-1.693-1.423-2.289-2.846-2.289-2.846zm8.689 8.534c0.2 0.814 0.45 1.82 0.52 2.451 0.16 1.395 0.13 2.503 0.02 3.394 0.67 0.383 2.06 0.587 2.92 0.682-0.6-1.984-1.08-4.041-1.42-6.027-0.78 0-1.46-0.21-2.04-0.5zm0.53 5.933c-0.06 0.512-0.14 0.968-0.23 1.318 2.13 2.171 3.82 3.013 4.67 3.331-0.42-0.895-0.78-1.845-1.11-2.819-2.02-0.442-3.02-1.45-3.33-1.83zm7.14 27.033c-0.01 0.01-0.02 0.02-0.03 0.04-0.19 0.22-0.36 0.45-0.55 0.68-11.65 14.65-3.13 30.5-18.865 58.89 1.436-0.03 2.599 0.75 3.401 1.63 7.294-8.73 11.814-28.51 12.014-43.11 0.06-5.09 0.79-9.15 1.73-12.35 0.7-2.4 1.53-4.33 2.3-5.78zm-19.327 62.15c-0.22-0.01-0.457 0.04-0.707 0.14-0.599 0.29-9.479 4.62-25.582 9.46h0.007c10.945-1.36 23.782-6.85 27.821-8.67-0.364-0.47-0.88-0.91-1.539-0.93z" transform="matrix(.8 0 0 -.8 354.43 554.1)" fill="#fff"/><path d="m110.34 54.824c-0.02 0.003-0.04 0.006-0.05 0.008 0.01 0.017 0.03 0.028 0.06 0.025 0-0.01-0.01-0.02-0.01-0.033zm21.67 2.065c-2.38-0.094-5.58 1.343-5.58 1.343-4.22 2.347-7.66 5.344-10 7.678-0.54 3.385-1.34 5.639-1.37 5.711l-0.07 0.191c8.11-9.027 15.75-10.699 15.75-10.699 0.3 1.625-0.67 5.836-0.67 5.836 3.07-3.281 3.84-7.738 4.01-9.156-0.05-0.124-0.09-0.191-0.09-0.191-0.47-0.482-1.18-0.682-1.98-0.713zm-13.45 0.998c-0.95-0.053-1.61 0.047-1.61 0.047-0.05 0.057-0.08 0.109-0.13 0.164 0.12 1.815 0.07 3.552-0.07 5.144 2.2-2.26 4.46-4.002 5.83-4.969-0.21 0.144-0.43 0.304-0.67 0.483-1.16-0.611-2.4-0.817-3.35-0.869zm-8.02 0.691c-1.14 0.067-2.49 0.489-3.71 1.135l0.02 0.129 1.12 9.625 0.08 0.248-0.13 0.512v0.009c-0.02 0.075-0.05 0.14-0.07 0.209-0.38 1.165-1.17 1.592-1.63 1.741-1.03 0.327-2.05-0.109-2.66-0.625l-0.34-0.282-0.17-0.4c-1.39-3.241-3.01-5.811-4.722-7.859-1.679 0.218-3.006 1.089-3.006 1.089-1.587 2.243 1.658 7.469 2.52 8.778 0.005 0.01 0.009 0.048 0.019 0.097 0.003 0.005 0.018 0.022 0.018 0.022-1.212-3.852-0.111-7.551-0.111-7.551 5.072 8.014 10.702 10.078 10.702 10.078 2.9 1.341 5.85-2.98 5.85-2.98 0.03-0.03 0.06-0.056 0.08-0.086-1.03 0.752-1.94 0.593-2.4 0.424-0.98-0.363-1.5-1.306-1.66-2.071l-0.09-0.416 0.11-0.406c0.68-2.573 1-4.907 1.08-7.043-0.29-1.567-0.66-3.49-0.9-4.377zm33.42 15.535c-5.22 0.078-10.43 1.231-15.32 3.309-0.95 1.917-2.21 3.987-3.81 6.058 0.3 2.169 1.88 4.757 5.93 5.834 0.34-0.817 0.89-6.991 11.93-6.904 0.29-0.01 4.42-0.197 6.79-2.127 0 0 0.88-0.641 2.12-1.297-0.03-1.4-0.2-2.843-0.56-4.298-2.34-0.423-4.71-0.61-7.08-0.575zm-28.64 1.395c-2.22 2.742-4.16 3.596-5.73 3.596 0.34 1.989 0.83 4.042 1.43 6.027 0.42 0.043 0.73 0.066 0.73 0.066 1.21-0.136 3.3-1.597 3.3-1.597l0.57 1.373c-1.58 1.405-3.34 1.548-3.34 1.548-0.32-0.034-0.6-0.092-0.87-0.154 0.33 0.974 0.69 1.923 1.11 2.817-0.85-0.316-2.55-1.157-4.67-3.33 0.25-0.967 0.48-2.542 0.22-4.799-0.07-0.634-0.32-1.637-0.51-2.451-1.36-0.691-2.13-1.85-2.13-1.85 2.98 7.711 0.62 9.49 0.62 9.49 3.98 4.384 6.89 4.684 6.89 4.684 5.38-3.07 8.38-8 8.38-8-8.8 1.726-6-7.42-6-7.42zm-4.3 9.623c0-0.001 0 0-0.01 0 0.09 0.278 0.18 0.554 0.27 0.832-0.09-0.274-0.17-0.555-0.26-0.832zm19.22 23.459c-1.23 0.01-2.37 0.08-3.43 0.21-1.36 1.88-1.67 4.86-1.68 4.87 0 0-0.42-2.23-0.69-4.48-9.57 2.13-11.62 9.06-11.62 9.06-0.03-0.13 0.01-0.45 0.1-0.9 0.35-1.19 0.73-2.26 1.12-3.22-1.44 3.51-2.76 8.58-2.85 15.57-0.01 0.43-0.02 0.88-0.03 1.33 12.88-3.43 21.68-1.61 27.71 2.2 0.25-0.67 2.84-7.84 4.28-15.36 0 0 0-0.01 0.01-0.01-3.07-1.71-9.05-2.45-9.96-2.55-2.44 1.82-4.83 2.77-4.83 2.77s1.05-1.19 1.81-2.98c-4.39-0.28-11.32 1.15-12.37 1.42 0 0 7.67-2.99 12.92-3.1 0.33-1.46 0.32-3.14-0.49-4.83zm7.91 0.1c-0.05 0.21-0.11 0.42-0.18 0.62 0.07-0.2 0.13-0.41 0.18-0.62zm-0.19 0.64c-0.48 1.43-1.32 2.69-2.31 3.78 2.6-0.03 5.33 0.16 8.11 0.67 0.05-0.73 0.17-1.54 0.38-2.38-0.01 0.05-0.03 0.1-0.04 0.14-0.38-0.39-0.77-0.75-1.17-1.09-1.76-0.47-3.4-0.84-4.97-1.12zm-20.81 21.16c-3.32 0.05-5.64 0.47-6 0.54-0.43 14.45-4.9 33.31-11.974 41.78 0.251 0.28 0.476 0.56 0.652 0.84 3.552-1.07 6.842-2.44 9.852-4.06-1.16-3.92-4.13-6.11-4.13-6.11 2.75 1.52 4.44 3.43 5.47 5.38 5.37-3.09 9.88-6.95 13.67-11.21-1.49-3.03-4-6.07-8.06-8.75 0 0 5.77 1.52 9.99 6.48 4.83-5.97 8.36-12.55 10.92-18.75-6.55-5.3-14.85-6.23-20.39-6.14z" transform="matrix(.8 0 0 -.8 354.43 554.1)" fill="#ee3124"/><path d="m110.29 54.832c-3.8 0.666-6.57 2.481-8.22 3.904 0.72 0.927 1.49 2.006 2.05 2.877v0.002c0.03 0.047 0.06 0.1 0.1 0.147 1.27 1.738 2.39 4.217 3.05 5.832 0.41 0.976 0.61 1.584 0.62 1.621l0.08 0.252-1.12-9.625-0.02-0.129c1.22-0.646 2.57-1.065 3.71-1.135 0.24 0.887 0.61 2.808 0.9 4.375 0.01-0.335 0.04-0.676 0.04-1.002 0-2.719-0.45-5.06-1.13-7.094-0.03 0.003-0.05-0.008-0.06-0.025zm6.15 0.01c0.19 1.102 0.32 2.193 0.38 3.256 0.05-0.055 0.08-0.11 0.13-0.164 0 0 2.64-0.4 4.96 0.822 0.24-0.179 0.46-0.339 0.67-0.483 0-0.002 0-0.003 0.01-0.003 0.59-0.42 1.01-0.694 1.18-0.801 0.01-0.008 0.01-0.007 0.02-0.012 0.04-0.027 0.08-0.047 0.08-0.047-2.7-1.393-5.18-2.191-7.43-2.568zm17.64 2.951c-0.17 1.418-0.94 5.875-4.01 9.156 5.3-5.148 4.36-8.374 4.01-9.156zm-9.25 25.687c-2.09 2.695-4.79 5.392-8.31 7.766-0.65 1.18-1.15 2.349-1.34 3.459 0 0 1.03 6.515 10.13 7.675 1.2-2.12 3.55-4.09 7.76-4.103 0.28-1.065 1.06-2.475 2.97-3.994-1.48 0.553-2.82 1.057-3.92 1.471-2.21-2.571-1.36-6.433-1.36-6.438-4.05-1.077-5.63-3.667-5.93-5.836zm32.46 4.944c-0.21 0.151-0.4 0.289-0.56 0.406-0.13 0.112-0.3 0.339-0.49 0.645 0.41-0.286 0.86-0.536 1.34-0.772-0.1-0.094-0.2-0.185-0.29-0.279zm-5.55 11.318c-0.22 0.378-0.46 0.758-0.73 1.138-0.52 0.78-1.12 1.56-1.8 2.32-0.33 0.38-0.69 0.75-1.06 1.11 0.1 0.04 0.21 0.08 0.31 0.13l0.2-0.22c0.03-0.03 0.32-0.35 0.72-0.76 0.41-0.41 0.93-0.92 1.41-1.31 0.08-0.07 0.18-0.17 0.27-0.31 0.1-0.13 0.2-0.29 0.29-0.49 0.18-0.4 0.34-0.94 0.39-1.608zm-27.35 5.088c-1.02 0.27-2.05 0.6-3.13 0.99-2.45 1.92-4.41 3.82-6.03 5.74-0.2 0.38-0.41 0.79-0.61 1.23-0.17 0.37-0.35 0.77-0.51 1.18-0.03 0.06-0.05 0.11-0.07 0.16-0.39 0.96-0.77 2.03-1.12 3.22-0.09 0.45-0.13 0.77-0.1 0.9 0 0 2.06-6.93 11.62-9.06-0.13-1.15-0.23-2.3-0.21-3.17 0.01-0.35 0.07-0.76 0.16-1.19zm5.09 2.48c-1.17-0.03-2.04 0.61-2.67 1.49 1.06-0.13 2.2-0.21 3.43-0.21-0.2-0.43-0.44-0.86-0.76-1.28zm8.81 0.73c-0.07 0.44-0.18 0.87-0.32 1.28 1.56 0.29 3.2 0.66 4.96 1.13-0.2-0.23-0.69-0.71-1.33-1.26-0.4-0.35-0.86-0.71-1.41-1.11-0.62 0.04-1.26 0.02-1.9-0.04zm23.99 14.44l-0.4 1.23 0.83 0.91c0.08-1.33-0.43-2.14-0.43-2.14zm-1.79 8.21c-0.4 1.19-0.84 2.43-1.34 3.72 0.43-0.22 1.62-0.87 2.79-1.94-0.41-0.53-0.91-1.14-1.45-1.78zm2.09 2.65s-1.69 0.71-3.45 1.12c-1.89 4.8-4.61 10.21-8.47 15.51 0.47 1.62 0.72 2.92 0.85 3.69 3.98-4.68 7.44-9.94 10.31-15.78 0.02-0.03 0.65-1.34 1.46-3.53-0.19-0.28-0.41-0.6-0.7-1.01zm-15.58 21.2c-4.2 4.78-9.45 9.31-16.05 13.05 0 0.82-0.04 1.68-0.13 2.58 3.74-1.95 7.25-4.19 10.52-6.73 2.14-1.66 4.17-3.44 6.1-5.35-0.11-1.23-0.25-2.41-0.44-3.55zm-20.71 15.44c-4.13 1.92-8.71 3.53-13.8 4.75 0.02 0.84-0.04 1.57-0.11 2.16 1.85-0.42 3.75-0.91 5.65-1.49 2.63-0.81 5.18-1.76 7.65-2.81 0.22-0.75 0.44-1.62 0.61-2.61zm-16.44 5.33c-3.1 0.63-6.39 1.12-9.85 1.44-0.236 0.68-0.671 1.42-1.426 2.13 3.016-0.21 6.636-0.61 10.546-1.33 0.31-0.77 0.57-1.53 0.73-2.24z" transform="matrix(.8 0 0 -.8 354.43 554.1)" fill="#8a1f03"/></g></g></svg>
