<?xml version="1.0" encoding="UTF-8" standalone="no"?>
<svg xmlns:rdf="http://www.w3.org/1999/02/22-rdf-syntax-ns#" xmlns="http://www.w3.org/2000/svg" xml:space="preserve" height="189.11" viewBox="0 0 202 189.10618" width="202" version="1.1" xmlns:cc="http://creativecommons.org/ns#" xmlns:dc="http://purl.org/dc/elements/1.1/"><g transform="matrix(1.25 0 0 -1.25 46.064 493.27)"><g><path d="m97.217 358.45c-19.506-18.392-22.291-14.766-22.291-14.766 2.2285-14.215-1.1162-25.362-1.1162-25.362-3.9033-5.0175-4.737 23.968-4.737 23.968-13.935-8.0834-23.968-26.2-23.968-26.2 6.6854-12.26 6.9693-22.014 6.9693-22.014-6.1317-1.3911-11.706 16.443-11.706 16.443l-16.166-15.05c11.983-2.7856 25.084-17.837 25.084-17.837 5.8549 0.83739 18.393 10.312 18.393 10.312-2.2319 2.5088-4.1816 19.787-4.1816 19.787 10.869-7.8031 13.378-15.327 13.378-15.327 3.3427 0.83739 7.5248 5.8478 7.5248 5.8478 2.789 4.4604 8.0855 7.8078 8.0855 7.8078-1.9516 5.5746 4.7317 52.39 4.7317 52.39zm-131.26-2.5c23.689-21.19 35.113-54.91 35.113-54.91l27.034-0.27771c0.55712 1.6714-2.227 11.423-2.227 11.423s-14.775-1.6682-16.726 3.6262c-1.9482 5.2978 15.327 2.2323 15.327 2.2323l-6.6863 13.928s-20.062-1.6671-18.948 4.4647c1.1142 6.1317 17.554-0.56075 17.554-0.56075l-12.262 15.605-38.179 4.4646zm95.312-74.97c-2.5088-3.3461-9.2017-5.2978-9.2017-5.2978 14.772-14.489 11.151-14.766 11.151-14.766-6.1317-4.457-17.56 12.262-17.56 12.262-0.55712-1.6748-14.489-3.3432-14.489-3.3432 12.26-7.246 17.276-23.13 17.276-23.13 26.475 7.5228 44.871 22.297 44.871 22.297-26.755 6.4086-32.048 11.979-32.048 11.979z" fill="#a10022"/><path d="m96.384 316.93s1.1142-3.623 10.032-2.7856c0 0 0-5.2978-10.312-2.5088l0.28027 5.2944zm0.83397 9.4758s6.1317-4.1801 18.395-2.2285c0 0-9.4745-6.6889-7.5262-7.5262 0 0-11.146-0.27685-11.146 3.3461l0.27685 6.4086zm1.1159 6.9674s16.444-1.1142 24.524 8.08c0 0 0.83739-6.6889-11.146-13.374 0 0-9.1976-2.5088-13.655 0.55712l0.27685 4.7372zm0.83636 7.8031s19.229 2.5088 24.804 14.492c0 0-4.7406-9.7547-3.0659-11.706 0 0-1.6748-7.246-21.738-8.3602v5.5746zm1.1142 11.148s19.786 8.9174 20.624 28.147c0 0 5.5746-3.623-1.1142-11.426 0 0 6.4086-9.1976-1.1176-15.049 0 0-6.4086-9.1976-18.392-10.032v8.3602zm0.83568 11.146s13.658 11.426 0 25.361c0 0 15.606 1.6714 11.426-10.312 0 0 6.6889-5.2944-1.6714-14.212 0 0-1.6714-6.4086-9.7547-7.246v6.4086zm-133.21-4.7372s-13.378 20.067 9.1976 31.493c0 0-3.0659-5.8549-5.2944-6.6889 0 0-3.623-19.786 1.6714-25.084l-5.5746 0.28027zm8.081-1.6724s-7.246 27.313 11.983 36.787c0 0-7.8031-13.097-3.623-17.558 0 0-5.5712-13.378-1.9482-19.509l-6.412 0.28027zm9.4758-0.83568s-3.3427 20.067 11.706 26.195c0 0-5.8515-8.6371-4.7372-11.983l1.9482-0.83398s-4.1801-10.032-3.0625-13.655l-5.8549 0.27685zm8.3609-0.83568s-0.83397 11.146 9.7547 17.001c0 0-8.0834-10.869-4.4604-17.281l-5.2944 0.28027zm6.41-0.83602 5.0175-1.1142s-1.1177 12.26 2.5088 12.817c0 0-4.7406-0.27685-7.5263-11.703m-2.2294-110.36s5.8515-0.83739 5.8515 6.1317c0 0-4.1801 3.0625-4.7372 2.7856 0 0-15.606 12.263-20.624-1.6748 0 0-1.1142-5.8515 3.623-6.6854 0 0-3.623 8.08 4.7372 6.6854 0 0 3.3461 6.6923 9.7547-0.83397 0 0 8.3602-3.9033 1.3945-6.4086m12.26 30.654s-10.312-15.049 0-17.278l-6.1317-4.1801s-4.457 5.5712-8.9173 5.5712c0 0 5.8515 5.5746 10.589 16.444l4.4604-0.55712zm2.7863-0.83568s-2.5088-1.9516-2.2285-4.4604c0 0-7.8031-6.6854 2.5088-10.866 0 0-4.7372 8.08 1.9516 8.9173 0 0 8.08-1.9516 8.08-6.1317 0 0-1.1142-1.1177-2.5088-2.2319 0 0 5.0175-2.5053 7.5262 5.2978 0 0-6.4086 2.7856-5.8549 8.08 0 0-6.1283 1.9516-9.4745 1.3945m-0.83466 2.2295s9.1976 1.9516 16.444-3.623c0 0-1.1177 14.769-8.9208 13.378 0 0-1.3911 0.55712-7.5228-9.7547m-34 10.033s-0.55712-8.3602 6.6889-12.263l-0.83739 6.4086s14.492 6.9691 21.738-2.5053l5.2944-0.28027s4.7372 10.592 9.7547 11.149c0 0 6.4086 1.3911 10.312-15.329 0 0 6.9657-1.9516 13.935 2.5088 0 0-33.441 40.13-66.885 10.312m10.312 1.9516-5.0175-1.9516s1.6748 5.8515 8.9173 5.5746l-3.8998-3.623z"/></g></g></svg>
