<svg xmlns="http://www.w3.org/2000/svg" width="248" height="216.42" viewBox="0 0 248 216.42">
 <g transform="matrix(1.3333 0 0 -1.3333 -177.09 641.53)">
  <g>
   <path d="m313.33 424.91-1.8649 0.46397c-0.87511 0.21746-11.327 2.5864-14.845 3.3657l-4.6932 1.0136c-4.9262 1.0177-9.9428 1.9383-14.916 2.7365l-5.2021 0.75213-0.61418 0.0862v46.78h-60.382l-10.22-2.9798-16.328 3.0694v-45.718c-2.3364-0.27038-4.6762-0.56317-6.9921-0.88047l-4.7795-0.68888-0.0251-4e-3c-2.3717-0.35941-10.895-1.8336-10.985-1.8493l-0.0435-7e-3c-2.3629-0.43746-11.394-2.28-11.482-2.2983l-0.0673-0.0143c-3.4513-0.76366-8.9277-2.1822-9.8103-2.4016l-1.873-0.46606-4.6551-7.7463-0.0217-25.603 7.0648-7.9576 4.6687 1.1963c3.0966 0.79352 7.9392 1.9233 9.3523 2.2474l4.3555 0.9362 13.327 2.4003 5.289 0.7928 1.8303 0.25068c1.6074 0.2201 3.2277 0.42803 4.848 0.62507l5e-3 -35.072-10.585-38.556 61.394 14.266 17.766 18.79h18.347v39.338c1.8344-0.27101 3.3236-0.49456 3.3542-0.49928 4.723-0.75821 9.4916-1.634 14.17-2.6l4.5111-0.96542c3.456-0.76566 9.6323-2.0395 13.069-2.92l4.7121-1.2072 7.0201 8.0404v25.556z" fill="#cecfce"/>
   <path d="m310.35 420.85s-11.145 2.5443-14.728 3.3378l-4.6348 1.0014c-4.8575 1.0034-9.8014 1.9111-14.694 2.6964l-5.1294 0.74125-1.4518 0.20385c-1.032 0.14467-2.0694 0.28462-3.1082 0.42049v46.303h-55.181l-10.64-3.1028-12.007 2.2569v-39.699c0.72082-0.22963 7.0981-2.2597 12.018-3.6932-1.1502-0.0774-2.3011-0.16028-3.4445-0.24932l-7.2062-0.63315-1.7664-0.18551c-3.4791-0.36477-6.999-0.79008-10.462-1.2643l-4.7468-0.68416c-2.3208-0.35124-10.878-1.8309-10.878-1.8309-2.3058-0.4273-11.39-2.2806-11.39-2.2806-3.5762-0.79153-9.6927-2.3745-9.6927-2.3745l-2.996-4.986-0.0197-22.542 4.0029-4.5084 1.9159 0.49119c3.4872 0.89336 9.5337 2.2902 9.5337 2.2902l4.4363 0.95253 13.471 2.4267 5.3881 0.80714 1.85 0.2534c3.3065 0.45244 6.6654 0.85878 9.9896 1.21l5e-3 -40.884-8.7253-31.781 52.617 12.226 18.172 19.218h15.756v35.448c-1.3927 0.73235-8.1254 4.2726-11.513 6.0362 2.3621-0.24796 6.2557-0.66101 7.7884-0.84716l2.6952-0.33972c2.3126-0.30024 9.6967-1.4083 9.6967-1.4083 4.7992-0.7711 9.6479-1.6604 14.41-2.6448l4.5458-0.97287c3.509-0.77655 9.7396-2.0633 13.23-2.9581l1.9342-0.49528 3.9846 4.5641v22.504zm-61.097 40.923-9.1974-11.199v-18.94l-9.796 0.36549c-0.62434 0.013-7.9297 0.0721-7.9297 0.0721-0.63115-2e-3 -1.265-5e-3 -1.8995-0.0109l-3.8093-0.0544c-0.34371-6e-3 -0.68615-0.0156-1.0292-0.0238v2.7271l-0.0122 5e-3v15.861l-9.1974 11.199h42.871zm-42.873-91.611 9.1994 11.201v18.573c1.9165 0.0448 3.846 0.0741 5.7523 0.0856l3.2739 0.0191 1.4668-0.0103 3.2338-0.0591c1.869-0.0347 8.3686-0.28944 10.689-0.38183v-18.228l9.1295-11.138z" fill="#224e92"/>
   <path d="m225.19 428.2c-2.6441 4e-3 -5.2872-0.02363-7.9307-0.08203-5e-3 -1.2269-0.01141-2.4542-0.01611-3.6812 0.46197-0.12506 0.92523-0.25086 1.3872-0.37793-0.0231-5.4724-0.04651-10.946-0.07031-16.418-0.46334-0.14404-0.9268-0.28966-1.3901-0.43506-5e-3 -1.2269-0.00924-2.4542-0.01464-3.6812 2.3038 0.0509 4.6082 0.07863 6.9126 0.08203 5e-3 1.2269 0.00925 2.4542 0.01465 3.6812-0.46261 0.13451-0.9245 0.26822-1.3872 0.40137 0.0204 4.8481 0.04122 9.6964 0.06152 14.544 1.5225-4.8963 3.0449-9.8029 4.5674-14.72 0.50409-5e-3 1.0076-0.01052 1.5117-0.01612 1.5633 4.8854 3.1273 9.7607 4.6904 14.625-0.0115-2.7135-0.02219-5.4274-0.03369-8.1401-9e-3 -2.1353-0.01833-4.2704-0.02783-6.4058-0.46334-0.12289-0.9268-0.24702-1.3901-0.37208-5e-3 -1.2269-0.00925-2.4528-0.01465-3.6797 2.3038-0.0516 4.6072-0.12785 6.9097-0.22705 5e-3 1.227 0.01071 2.4556 0.01611 3.6826-0.46197 0.15484-0.92523 0.30941-1.3872 0.46289 0.0217 5.1776 0.04351 10.356 0.06591 15.533-0.46678 0.31385-0.93223 0.62574-1.3989 0.9375 0.93002-0.0332 1.8604-0.06915 2.7905-0.10987 6e-3 1.3629 0.01207 2.724 0.01757 4.0869-2.6414 0.11345-5.2842 0.19517-7.9277 0.24609-1.0123-3.5117-2.0252-7.0278-3.0381-10.548-0.97223 3.5416-1.9457 7.0786-2.918 10.611zm-17.241-0.41748c-2.4403-0.12162-4.8793-0.27005-7.3169-0.44531-5e-3 -1.2304-0.00935-2.4596-0.01465-3.6899 0.44972-0.0999 0.8994-0.2014 1.3491-0.30323v-0.00146c-1.3954-5.5648-2.7911-11.139-4.1865-16.721-0.46125-0.17182-0.92157-0.34466-1.3828-0.51856-5e-3 -1.227-0.01072-2.4556-0.01612-3.6826 2.2718 0.19158 4.5458 0.35997 6.8203 0.50537 5e-3 1.227 0.01072 2.4542 0.01612 3.6812-0.46061 0.10592-0.92146 0.21102-1.3814 0.31494 0.26022 1.0734 0.52055 2.1463 0.78076 3.2197 1.8445 0.12098 3.6905 0.22536 5.5356 0.3164 0.25077-1.0388 0.50078-2.0762 0.75146-3.1157 9.1e-4 -5e-3 0.0034-0.01005 0.0044-0.01465-0.46197-0.15692-0.92523-0.31485-1.3872-0.47314-5e-3 -1.2276-0.00925-2.455-0.01465-3.6826 2.2868 0.11617 4.5738 0.20981 6.8613 0.27979 5e-3 1.2269 0.00925 2.4535 0.01465 3.6812-0.46134 0.12089-0.92157 0.24219-1.3828 0.36181-1.6842 6.7761-3.3679 13.538-5.0508 20.288zm35.761-0.12305c-0.62025-0.79416-1.2401-1.5894-1.8604-2.3862-0.0279-6.5173-0.05569-13.034-0.08349-19.551 0.61272-0.88319 1.2256-1.7677 1.8384-2.6543 3.5341-0.2005 7.0657-0.45738 10.594-0.77051 0.6189 0.78599 1.2377 1.5698 1.856 2.3525 0.0279 6.5397 0.05706 13.08 0.08496 19.62-0.61146 0.87575-1.224 1.7489-1.8354 2.6206-3.528 0.31249-7.0596 0.56864-10.594 0.76904zm-51.901-1.0723c-3.4342-0.33763-6.8636-0.72825-10.289-1.1719-0.6169-0.90834-1.2338-1.8188-1.8501-2.7305-0.0279-6.5166-0.05559-13.034-0.08349-19.551 0.60937-0.76839 1.2202-1.5398 1.8296-2.3115 3.4255 0.44427 6.8555 0.83425 10.289 1.1719 0.61899 0.90079 1.2371 1.8008 1.856 2.6982 6e-3 1.7256 0.01457 3.4511 0.02197 5.1768-1.2222-0.4715-2.4428-0.95043-3.6636-1.4356-5e-3 -0.84517-0.00636-1.6905-0.01026-2.5356-2.0701-0.21474-4.1384-0.44825-6.2051-0.70166 0.0218 5.1776 0.04422 10.354 0.06592 15.532-0.4647 0.23843-0.92838 0.47549-1.3931 0.71192 2.5313 0.32066 5.0649 0.61313 7.6011 0.87597-4e-3 -0.85533-0.00535-1.7103-0.01025-2.5664 1.2181-0.23235 2.436-0.47108 3.6548-0.71631 7e-3 1.7596 0.01457 3.5189 0.02197 5.2778-0.61145 0.76085-1.224 1.5189-1.8354 2.2764zm67.118-0.13916c-5e-3 -1.2263-0.01071-2.4527-0.01611-3.6797 0.46062-0.1827 0.92138-0.36599 1.3814-0.55078-0.0231-5.4724-0.04575-10.946-0.06885-16.418-0.46124-0.0863-0.92377-0.1739-1.3857-0.26221-5e-3 -1.227-0.00995-2.4542-0.01465-3.6812 2.295-0.2357 4.588-0.49374 6.8789-0.77637 5e-3 1.227 0.00925 2.4527 0.01465 3.6797-0.45998 0.19223-0.91844 0.38399-1.3784 0.57422 6e-3 1.6577 0.01371 3.3155 0.02051 4.9731 1.0537-0.12571 2.1073-0.25524 3.1597-0.39111 0.75958-1.7562 1.5204-3.5155 2.2793-5.2778-2e-3 -2e-3 -0.00386-0.00486-0.00586-0.00586-0.45853-0.0706-0.91835-0.14263-1.377-0.21533-5e-3 -1.2269-0.00995-2.4542-0.01465-3.6812 2.3296-0.30703 4.6566-0.63929 6.9814-0.99462 5e-3 1.227 0.01072 2.4542 0.01612 3.6812-0.45795 0.20558-0.91601 0.41018-1.374 0.61377-1.8e-4 4.1e-4 1.8e-4 0.00105 0 0.00146h-0.00146c-0.88903 2.0518-1.7785 4.1-2.669 6.145 0.72836 0.6699 1.4558 1.3382 2.1841 2.0039 0.0136 3.3269 0.02828 6.653 0.04248 9.98-0.60873 0.90761-1.2173 1.813-1.8267 2.7173-4.2672 0.60401-8.5433 1.1255-12.826 1.5645zm-82.075-1.6714c-2.2868-0.32955-4.5712-0.68279-6.8525-1.0591-5e-3 -1.227-0.01082-2.4542-0.01612-3.6812 0.45789-0.0598 0.91614-0.11983 1.374-0.18164-1.1095-2.1754-2.2178-4.3566-3.3252-6.5435-0.89 1.477-1.7788 2.9492-2.6675 4.418-0.57679 0.26639-1.1525 0.531-1.7285 0.79394 0.83219 0.15293 1.6654 0.30295 2.499 0.44971 5e-3 1.3629 0.01208 2.7248 0.01758 4.0869-2.2779-0.40289-4.5529-0.8291-6.8247-1.2803-5e-3 -1.2276-0.01071-2.4564-0.01611-3.6841 0.45588-0.0442 0.91236-0.0886 1.3682-0.13477 1.7617-3.0158 3.5245-6.0474 5.2896-9.0923-9e-3 -2.1122-0.01757-4.2233-0.02637-6.3354-0.45861-0.21673-0.91613-0.4345-1.374-0.65332-5e-3 -1.2269-0.01071-2.4542-0.01611-3.6812 2.2766 0.41368 4.5566 0.80419 6.8394 1.1704 5e-3 1.2269 0.01082 2.4542 0.01612 3.6812-0.45789 0.0618-0.91615 0.12329-1.374 0.1831 9e-3 2.0775 0.01757 4.1554 0.02637 6.2329 1.6428 3.3725 3.2875 6.7331 4.9336 10.081-0.45717 0.22219-0.91456 0.44431-1.3711 0.66504 1.0693 0.16446 2.1402 0.32259 3.2109 0.47607 6e-3 1.3629 0.01137 2.7255 0.01757 4.0884zm101.37-0.8291c-5e-3 -1.2296-0.01071-2.4595-0.01611-3.6885h0.00146c0.45725-0.2092 0.9153-0.41859 1.3726-0.62988-0.0238-5.4826-0.04721-10.965-0.07031-16.447-0.45861-0.0592-0.91697-0.12056-1.3755-0.18164-5e-3 -1.2297-0.01071-2.4588-0.01611-3.6885 4.8249-0.77928 9.6366-1.6646 14.432-2.6558 0.0102 2.354 0.01979 4.7094 0.02929 7.0635-1.2052-0.10946-2.4102-0.22574-3.6182-0.34863-3e-3 -0.63115-0.00579-1.2614-0.00879-1.8926-1.7834 0.34788-3.568 0.68119-5.3555 1.0005 8e-3 2.0613 0.016 4.1219 0.0249 6.1831 1.3812-0.24659 2.762-0.50181 4.1411-0.76611-9.1e-4 -0.28462-0.0024-0.56791-0.0044-0.85254 1.2168-0.23307 2.4312-0.47327 3.646-0.71924 8e-3 1.9335 0.01747 3.8673 0.02637 5.8008-1.2148 0.24659-2.4322 0.48688-3.6489 0.71923-7.3e-4 -0.284-9.3e-4 -0.56855-0.00293-0.85254-1.3791 0.26357-2.7599 0.51796-4.1411 0.76465 7e-3 1.7561 0.01603 3.5144 0.02343 5.2705-0.46877 0.38391-0.93747 0.76514-1.4062 1.147 2.259-0.39336 4.514-0.80923 6.7661-1.2495-3e-3 -0.63106-0.00433-1.2629-0.00733-1.894 1.2046-0.59385 2.4068-1.1944 3.6094-1.8018 0.0102 2.3548 0.02116 4.7088 0.03076 7.0635-4.7951 0.9912-9.6066 1.8766-14.432 2.6558zm-33.699-0.41748c2.5802-0.1542 5.1598-0.33969 7.7373-0.55371-0.0238-5.4724-0.04711-10.945-0.07031-16.418-2.0931 0.17253-4.1875 0.32681-6.2827 0.45996 0.0218 5.1674 0.04351 10.334 0.06591 15.502-0.48366 0.3369-0.96716 0.67437-1.4502 1.0093zm18.511-1.6128c2.1475-0.24869 4.2953-0.51705 6.4394-0.80713-0.0109-2.4525-0.02212-4.9054-0.03222-7.3579-1.6856 0.22691-3.3728 0.44047-5.061 0.6416 9e-3 2.1631 0.01833 4.3268 0.02783 6.4893-0.45789 0.34579-0.91613 0.68974-1.374 1.0342zm-57.565-0.12452c0.55301-2.4322 1.1066-4.8651 1.6597-7.2993-1.1373-0.0591-2.2759-0.12496-3.4131-0.19629 0.58422 2.5001 1.1691 4.9989 1.7534 7.4956zm-50.518-0.8789c-3.5369-0.75068-7.0649-1.5596-10.582-2.4258-0.6081-0.97895-1.2157-1.959-1.8237-2.9414-0.0116-2.7514-0.02356-5.5044-0.03516-8.2559 0.56045-0.64204 1.1205-1.2853 1.6816-1.9307 2.8085-0.13796 5.6241-0.31249 8.4448-0.52442-6e-3 -1.6469-0.01518-3.2941-0.02198-4.9409-2.0347-0.447-4.0658-0.91243-6.0938-1.3975 3e-3 0.59439 0.00533 1.1898 0.00733 1.7842-1.3506 0.0789-2.6995 0.14849-4.0474 0.21094-6e-3 -1.5428-0.01371-3.0852-0.02051-4.6274 0.6012-0.66646 1.202-1.334 1.8032-2.0039 3.5172 0.86622 7.0453 1.6751 10.582 2.4258 0.61146 0.95935 1.2234 1.9167 1.8354 2.8726 0.0123 2.8853 0.02432 5.7705 0.03662 8.6558-0.41305 0.51298-0.8262 1.0257-1.2393 1.5366-2.9763 0.25476-5.9464 0.46759-8.9092 0.64013 5e-3 1.318 0.01002 2.6371 0.01612 3.9551-0.50745 0.20585-1.0137 0.41065-1.5205 0.61377 2.5348 0.62162 5.0752 1.2128 7.6201 1.7739-4e-3 -0.54756-0.00606-1.0945-0.01026-1.6421 1.3553-0.10591 2.712-0.2198 4.0708-0.34278 6e-3 1.4966 0.01285 2.9931 0.01905 4.4898-0.60537 0.69305-1.2088 1.3847-1.8135 2.0742zm142.26-0.60352c-0.61073-0.69569-1.2217-1.3941-1.8325-2.0933-0.0115-2.7514-0.02296-5.5029-0.03516-8.2544 0.5639-0.90697 1.1272-1.8149 1.6904-2.7246 2.8194-1.4545 5.6317-2.9465 8.4375-4.4751-6e-3 -1.6469-0.01301-3.2941-0.02051-4.9409-2.0239 0.50209-4.0528 0.98476-6.0835 1.4487 3e-3 0.59512 0.00532 1.1897 0.00732 1.7842-1.352 0.71129-2.7052 1.4151-4.0606 2.1094-6e-3 -1.5428-0.01234-3.0861-0.01904-4.6289 0.60392-0.94981 1.2073-1.8995 1.8106-2.852 3.5307-0.78054 7.0518-1.6205 10.562-2.5166 0.60738 0.67599 1.2133 1.3503 1.8193 2.023 0.0123 2.886 0.02442 5.7712 0.03662 8.6572-0.40897 0.70585-0.81784 1.4122-1.2275 2.1167-2.9519 1.642-5.913 3.2433-8.8799 4.8032 5e-3 1.3179 0.01207 2.6356 0.01757 3.9536-0.50817 0.44427-1.016 0.88696-1.5249 1.3286 2.5423-0.56526 5.08-1.1599 7.6113-1.7856-4e-3 -0.54693-0.00605-1.0952-0.01025-1.6421 1.3492-0.73843 2.6957-1.4851 4.0415-2.2412 6e-3 1.4973 0.01441 2.9939 0.02051 4.4912-0.59921 0.97632-1.2005 1.951-1.8003 2.9238-3.5097 0.89608-7.0293 1.7339-10.56 2.5151z" fill="#fff"/>
  </g>
 </g>
</svg>