<svg xmlns="http://www.w3.org/2000/svg" width="202" height="247.38" viewBox="0 0 202 247.38" >
 <g transform="matrix(1.3333 0 0 -1.3333 -119.48 808.13)">
  <path d="m219.04 458.91c-3e-3 -0.0372-5e-3 -0.0771-0.0106-0.11432-0.0611-0.53434-0.17545-1.0607-0.35091-1.5685-0.0319-0.0957-0.0718-0.18609-0.11431-0.27648-0.0851-0.23926-0.18078-0.48118-0.28712-0.7231 0 0-1.292-2.1533-1.9406-2.8764-0.64866-0.72044-2.4298-2.1879-2.4298-2.1879l5e-3 -8e-3c-1.6775-1.1724-3.3682-2.2703-5.2052-3.1928-0.96501-0.48649-1.9433-0.95172-2.9083-1.4435-1.0102-0.51574-2.0231-0.9464-3.0891-1.3398-2.2331-0.8188-4.5087-1.5153-6.8216-2.063-2.3633-0.56359-4.7692-0.8826-7.1804-1.1564-2.4165-0.27382-4.8437-0.34293-7.2708-0.22596-4.8384 0.22862-9.682 1.0474-14.374 2.2251-1.6881 0.42269-3.3443 0.95703-5.0005 1.4887-1.6137 0.52105-3.2486 0.96235-4.857 1.4914 0.0133 0.0319 0.0292 0.0638 0.0425 0.0957 0.016 0.0239 0.0292 0.0558 0.0399 0.0851 1.1219 2.459 1.7572 4.3359 1.7572 4.3359 0.52372 1.6854 0.9916 3.3922 1.3983 5.1095 0.12761 0.537 0.24723 1.0713 0.36155 1.611 0.0585 0.27647 0.11431 0.55561 0.17014 0.83475 0.0399 0.19672 8e-3 0.56093 0.23394 0.57422 0.51839 0.0239 1.0421 0.0452 1.5632 0.0638 1.6722 0.0532 3.347 0.0691 5.0191 0.0266 1.8423-0.0478 3.6926-0.15684 5.5083-0.49446 1.8955-0.35358 3.759-0.90387 5.5455-1.6376 1.8955-0.78158 3.7457-1.8503 5.3116-3.1768 0.81348-0.68853 1.5605-1.4621 2.1799-2.3314 0.46522-0.65397 0.77892-1.3691 1.1644-2.0683 0.19673-0.36155 0.68322-1.2495 1.2229-0.9464 0.35357 0.19938 0.40408 0.64334 0.39877 1.0075-0.0106 0.56359-0.0425 1.1272-0.0452 1.6908-8e-3 2.3846-5e-3 4.7267-0.52637 7.0688-0.48383 2.1693-1.308 4.3279-2.6159 6.1383-0.29774 0.41472-0.62739 0.78956-0.98893 1.1538-0.37484 0.37484-0.77893 0.81083-0.64069 1.385 0.11963 0.49713 0.53701 0.92248 0.8188 1.3345 0.32433 0.47055 0.63271 0.95172 0.90919 1.4515 1.1219 2.0124 1.8662 4.288 2.3155 6.5424 0.46789 2.3527 0.5184 4.7107 0.4546 7.1007-0.0133 0.52903 0 1.0607-0.0319 1.5844-0.0239 0.36155-0.10899 1.0767-0.58751 1.1219-0.45725 0.0425-0.56359-0.59814-0.59283-0.92513-0.0478-0.57422-0.15153-1.09-0.36421-1.6323-0.78158-2.0071-2.1772-3.7856-3.8016-5.1813-3.1901-2.7435-7.3452-4.1791-11.415-4.9899-2.3793-0.4732-4.7852-0.6779-7.199-0.86665-0.56359-0.0425-1.1245-0.093-1.6854-0.16483-0.25787-0.0345-0.51573-0.0797-0.7736-0.10367-0.11432-0.0106-0.23129-0.016-0.3456-5e-3 -0.19141 0.0186-0.12495 0.28977-0.13558 0.45459-0.0665 0.98096-0.15951 1.9593-0.29509 2.9349-0.0771 0.55827-0.16748 1.1139-0.28445 1.6668-0.13824 0.65132-0.19406 1.3159-0.28179 1.9779-0.32167 2.4325-0.79222 4.8384-1.2867 7.2416-0.093 0.44395-0.27647 0.99425-0.0558 1.4302 0.19938 0.39877 0.68056 0.54232 1.0793 0.65398 1.1298 0.31369 2.2411 0.68322 3.3709 0.99691 2.3288 0.646 4.6948 1.167 7.0768 1.5711 9.4853 1.603 19.449 1.2149 28.663-1.6243 2.2145-0.68322 4.3864-1.4967 6.5025-2.4378 1.93-0.85868 3.8574-1.7705 5.5428-3.0599 1.5685-1.2043 2.9721-2.6638 4.0222-4.3412 0.51839-0.82145 0.94906-1.704 1.2468-2.6292 0.29242-0.90121 0.52902-1.9114 0.56624-2.8605 0.0611-1.619-0.70448-3.0412-1.8662-4.1206-0.59283-0.55561-1.2654-1.0208-1.9619-1.4356-0.34028-0.20204-0.68854-0.39345-1.0421-0.57423-0.32965-0.16748-0.71778-0.3004-1.0129-0.51839-0.755-0.55295 0.48915-0.67258 0.87196-0.80285 0.88792-0.29774 1.7599-0.8055 2.5362-1.3239 1.4196-0.95172 2.6584-2.2304 3.3098-3.8308 0.0744-0.18609 0.13824-0.37484 0.19673-0.56625 0.30572-0.7098 0.3961-1.619 0.27116-2.6239m-62.043 88.489c-3e-3 5e-3 -3e-3 0.0133-8e-3 0.0213 0.0904-0.18875 8e-3 0.0505 0.0133 0.11431 8e-3 0.0851 0.0399 0.16217 0.093 0.22597 0.11697 0.14356 0.29775 0.22331 0.46257 0.28711 0.59283 0.22331 1.1724 0.47852 1.7572 0.71778 1.1032 0.45193 2.249 0.79753 3.3975 1.1112 2.3341 0.63802 4.7161 1.09 7.1166 1.3718 4.833 0.56624 9.7432 0.47852 14.55-0.27914 4.3944-0.69119 8.7622-1.9619 12.577-4.296 0.93045-0.5689 1.837-1.2069 2.5175-2.0683 0.61144-0.77361 1.0315-1.7014 1.2734-2.6531 0.42535-1.6828 0.22331-3.4533-0.48383-5.0298-0.72044-1.611-1.9167-2.9881-3.3363-4.0222-0.64334-0.46523-1.3771-0.80285-2.0257-1.2043-0.18078-0.109-0.25256-0.2047-0.0266-0.30041 0.30838-0.13292 0.63271-0.21533 0.95172-0.32432 3.0439-1.0527 6.3085-3.2194 7.2256-6.4839 0.49978-1.7785 0.14355-3.7404-0.79753-5.3142-1.066-1.7865-2.7781-3.0545-4.4422-4.2455-3.658-2.6159-7.7892-4.4343-12.128-5.5854-4.1418-1.1006-8.4246-1.6004-12.705-1.7147-2.156-0.0585-4.3146-0.0186-6.4706 0.093-2.1533 0.11166-4.3014 0.26319-6.4254 0.63537 2.0124 9.3444 2.0178 19.114 0.0186 28.461-0.73373 3.4427-1.8662 6.7684-2.9774 10.105-0.0558 0.12494-0.0771 0.24989-0.1276 0.37749m81.603-78.49 3e-3 0.0106c-0.72044 0.57157-1.3345 1.2787-1.8184 2.0975-0.84007 1.4169-1.1857 2.9695-1.6961 4.5167-1.4063 4.2694-3.246 8.4698-5.7821 12.194-2.6053 3.8282-6.1888 6.8242-10.017 9.3736-3.549 2.3607-7.3479 4.3492-11.264 6.0267-1.1006 0.47054-2.2118 0.92779-3.3443 1.3212 0.18609 0.13824 0.3642 0.28445 0.54764 0.42535l0.0718 0.0399s6.8641 4.1339 10.006 9.5916c0.31104 0.54232 0.60613 1.0873 0.88526 1.6296 0.6141 0.99425 1.1139 2.0576 1.5499 3.1476 0.21267 0.53169 0.39876 1.074 0.57156 1.6216 1.0926 2.8419 1.6243 4.9314 1.6243 4.9314l-0.0106-3e-3c0.86665 2.0895 2.0523 4.0169 3.783 5.4524h-3e-3s0.89323 0.84272 0.83475 1.0341c-0.0133 0.18609-1.0315 1.175-1.0315 1.175l3e-3 5e-3c-2.1985 2.0816-3.5251 4.8596-4.7214 7.659-0.35623 0.8374-0.71246 1.6748-1.0953 2.5016-0.44662 0.96767-0.99958 1.8742-1.6057 2.7541-1.1857 1.7253-2.5707 3.3124-4.094 4.7506-1.5233 1.4356-3.1768 2.7222-4.9181 3.8813-1.8742 1.2468-3.7936 2.459-5.7768 3.5304-4.0382 2.1799-8.39 3.783-12.877 4.748-9.4321 2.0257-19.412 1.308-28.756-0.8507-2.265-0.52371-4.6044-1.0474-6.771-1.9061-0.79487-0.31369-1.8077-1.0315-2.6877-0.64068-0.40674 0.18077-0.66992 0.56359-0.92247 0.91184-0.33231 0.45459-0.70715 0.87463-1.0873 1.2867-3.0652 3.3071-6.359 6.4361-10.078 8.9962-1.9433 1.3398-3.993 2.5149-6.0825 3.6102-0.51839 0.27116-1.0421 0.53435-1.5685 0.79487-0.11963 0.0585-0.83474 0.4546-1.2707 0.65132 0-3e-3 3e-3 -5e-3 3e-3 -5e-3s-1.3425 0.35092-1.5472 0.0585c-0.2047-0.29243 0.19673-1.4488 0.19673-1.4488l-8e-3 -3e-3c0.11431-0.14089 0.23128-0.27913 0.34826-0.42269 1.3957-1.7094 2.7222-3.4772 3.9717-5.2983 5.1201-7.4622 9.0201-15.868 11.009-24.718 2.0975-9.3391 1.7306-19.25-0.97033-28.429-1.2947-4.4024-3.2087-8.5921-5.5854-12.513-0.59815-0.98894-1.2282-1.9619-1.8795-2.9163-0.25787-0.37484-0.60612-0.66461-0.86133-1.0368-0.34028-0.49447-0.13292-0.94108 0.23394-1.3425 0.77892-0.85335 1.3957-1.8609 2.039-2.8153 0.65929-0.9783 1.3026-1.9672 1.9194-2.9721 1.845-3.02 3.4055-6.2234 4.6071-9.5518 1.2176-3.3762 2.2783-7.0422 2.1773-10.663-2.3554 0.3004-4.7161 0.69119-6.9598 1.4887-2.0922 0.74437-4.0807 1.7838-5.8645 3.1051-3.2353 2.3952-5.8353 5.6837-7.2682 9.4587-1.6456 4.3359-1.6881 9.0493-1.7094 13.624-0.0239 4.8995 0.21799 9.8123 0.9597 14.659 0.69385 4.5114 1.8263 9.0679 4.2987 12.963 0.6008 0.94374 1.2814 1.8476 2.1081 2.6079 0.38813 0.35889 0.80284 0.65929 1.2548 0.93045 0.35889 0.21534 1.0448 0.50245 0.56358 0.9597-0.3642 0.34825-0.8374 0.59549-1.2282 0.91716-0.44662 0.36686-0.85868 0.7736-1.2468 1.2016-0.73638 0.81614-1.385 1.712-1.9672 2.6425-2.4112 3.8733-3.5331 8.4033-4.3359 12.848-0.87462 4.8224-1.2973 9.7246-1.5897 14.613-0.29509 4.8702-0.0931 9.69 0.68853 14.51 0.74171 4.5592 1.9805 9.0679 3.993 13.239 1.2973 2.693 2.919 5.2345 4.9048 7.4729 1.0315 1.1591 2.1586 2.2357 3.3736 3.2008 0.98096 0.77626 2.039 1.3797 3.1024 2.0045h-3e-3s0.12761 0.15419 0.0425 0.39345c-0.0851 0.23926-0.43598 0.2685-0.43598 0.2685l3e-3 8e-3c-0.13026 8e-3 -0.26052 0.0106-0.39079 0.0159-0.6327 0.0213-1.2628 0.0346-1.8955 0.0372-1.2122 3e-3 -2.4245-0.0346-3.6341-0.13293-2.3713-0.1914-4.7267-0.64334-6.9917-1.3797-2.1214-0.68854-4.1631-1.6349-6.016-2.8764-0.95704-0.63802-1.8556-1.3585-2.701-2.1347-0.30838-0.2818-0.50511-0.66993-0.84539-0.92248-0.40674-0.3004-0.78689-0.13292-1.1219 0.18343-2.9721 2.7914-6.7205 4.8277-10.706 5.7449-2.1799 0.5051-4.4236 0.6779-6.6567 0.77626-1.1325 0.0478-2.2676 0.0771-3.4001 0.0638-0.58486-8e-3 -1.1671-0.0292-1.7519-0.0292-0.22863-3e-3 -0.45725-3e-3 -0.68322-0.0106-0.06114-8e-3 -0.23926-0.0479-0.29774-0.21799-0.06912-0.20736 0.20736-0.38548 0.20736-0.38548l-0.0027-5e-3c0.18077-0.0851 0.3642-0.17014 0.54232-0.26319 0.537-0.28179 1.0634-0.58751 1.5765-0.91184 0.98096-0.62473 1.9141-1.3212 2.8046-2.0683 1.7306-1.4542 3.3018-3.0971 4.6682-4.8968 2.6478-3.4852 4.5433-7.5048 5.8087-11.684 1.3877-4.5858 1.93-9.3816 2.1135-14.156 0.18874-4.9367 0.11697-9.8867-0.26851-14.815-0.37484-4.7586-1.0315-9.5172-2.3155-14.124-0.59018-2.1081-1.292-4.2376-2.592-6.024-1.0075-1.3877-2.3341-2.5202-3.8149-3.3842-0.0638-0.0425-0.31635-0.2233-0.31104-0.42269 0.0053-0.22862 0.29243-0.46256 0.29243-0.46256v-3e-3c0.66461-0.36952 1.3-0.79222 1.8662-1.3 0.82146-0.73373 1.4781-1.627 2.0683-2.5494 1.2229-1.9141 2.1374-4.0116 2.8552-6.1622 1.5126-4.538 2.2783-9.2859 2.7595-14.034 0.49447-4.8942 0.69917-9.8176 0.58485-14.736-0.11431-4.7373-0.74436-9.4826-2.1666-14.013-1.1272-3.5995-2.701-7.1326-5.1414-10.046-1.2309-1.4675-2.6903-2.7355-4.2827-3.7962-1.4994-0.99958-3.1396-1.7546-4.8038-2.4378l0.0027-8e-3s-0.13026-0.10899-0.10368-0.22065c0.02393-0.0904 0.1276-0.15418 0.16748-0.17545 2.1267-0.2047 4.2748 0.0266 6.3989 0.1728 2.3793 0.16216 4.7506 0.53434 7.0236 1.2601 2.1268 0.67525 4.1472 1.6722 6.0107 2.895 0.96235 0.63271 1.8875 1.3186 2.7701 2.0576 0.41472 0.3456 0.81349 0.7098 1.2122 1.074 0.35357 0.32167 0.77892-0.11697 1.0607-0.31902 0.92779-0.65663 1.9699-1.1219 2.9642-1.6642 1.0687-0.58219 2.1374-1.1591 3.222-1.712 2.1294-1.082 4.3067-2.0842 6.5504-2.9083 4.4635-1.6429 9.161-2.4723 13.819-3.3523 0.10368-0.0186 0.22331 0.0319 0.22597-0.093 3e-3 -0.0744 5e-3 -0.14887 5e-3 -0.22331 5e-3 -0.17279 8e-3 -0.34559 0.0133-0.51839 8e-3 -0.44662 0.016-0.89058 0.0213-1.3372 0.0106-0.88792 0.016-1.7785-0.016-2.6664-0.0372-1.0687-0.35092-2.1427-0.59549-3.1795-0.27648-1.1617-0.58486-2.3155-0.91982-3.4639-1.3133-4.4609-3.137-8.7542-5.3514-12.84-1.3239-2.4458-2.7701-4.8224-4.304-7.1379-0.77626-1.1697-1.5897-2.3155-2.4085-3.456-0.39611-0.55029-0.79487-1.1006-1.1883-1.6509-0.0478-0.0665-0.0824-0.1276-0.11165-0.1914-0.0213-0.0611-0.0957-0.32167 0.0399-0.54764 0.15951-0.25787 0.755-0.2047 0.755-0.2047l5e-3 -3e-3c0.2366 0.0558 0.45459 0.19938 0.69119 0.3137 1.0394 0.51042 2.0683 1.0474 3.0785 1.6163 1.9938 1.1245 3.9238 2.3634 5.7794 3.7059 2.1613 1.5685 4.1897 3.2912 6.1197 5.1202h-3e-3l0.10634 0.0957c0.14621 0.1409 0.29509 0.27382 0.43864 0.41206l8e-3 -8e-3 1.7971 1.6243 1.4223-0.60081-8e-3 -0.016c0.11697-0.0478 0.23128-0.0984 0.34825-0.14355 0.56093-0.22331 1.1192-0.4546 1.6854-0.66727 1.1086-0.42003 2.2331-0.79753 3.3629-1.1458 2.2969-0.7098 4.6204-1.3398 6.9412-1.954 4.7108-1.2415 9.472-2.2703 14.31-2.8445 4.8782-0.57954 9.8362-0.71246 14.72-0.12229 2.366 0.28445 4.6895 0.79221 6.9837 1.4249 2.2358 0.61676 4.4795 1.2548 6.6541 2.0576 4.1392 1.5339 8.1428 3.448 11.912 5.7475 1.0235 0.62473 1.9992 1.3505 2.9774 2.047 0.64068 0.45991 1.2521 0.94906 1.8503 1.4568 2.1108 1.6084 5.4019 4.4104 8.0258 8.3262 3.7378 5.5854 5.4206 11.208 5.8007 12.593 0.48384 1.3398 0.99426 2.6505 1.8902 3.8069 0.62473 0.80816 1.3957 1.4914 2.2437 2.055 0 0 1.199 0.7736 1.1325 1.1032-0.0744 0.35357-1.8317 1.6642-1.8317 1.6642"/>
 </g>
</svg>