<svg xmlns="http://www.w3.org/2000/svg" height="144.72" viewBox="0 0 250 144.71841" width="250"><g transform="matrix(1.25 0 0 -1.25 -99.504 201.98)"><g transform="matrix(.55480 0 0 .55480 80.308 46.514)"><path d="m140.86 205.79-0.431-1.841c-3.833 1.164-8.045 1.736-12.734 1.736h-55.326c-20.633 0-35.7-11.723-40.323-31.443l-8.349-37.078c-2.831-12.093-0.037-23.5 7.924-32.182l7.445-7.983h-24.628l-13.255-56.222c-5.412-23.098 9.154-33.448 13.747-36.071l0.633-0.351c1.301-0.705 2.674-1.33 4.126-1.875l0.507-0.186c0.621-0.22 1.263-0.424 1.876-0.603 0.3-0.09 0.605-0.174 1.051-0.291l0.229-0.061c0.539-0.136 1.079-0.269 1.53-0.363 0.861-0.182 1.756-0.34 2.666-0.471 0.325-0.047 0.662-0.086 0.95-0.119l0.112-0.014c0.655-0.078 1.328-0.142 1.964-0.189 0.303-0.023 0.605-0.045 0.989-0.066 1.012-0.055 1.95-0.082 2.869-0.082h54.896c1.069 0 2.16 0.035 3.321 0.105l-0.034-0.148h71.961l16.937 71.986h11.692c-3.84-16.791-6.07-26.695-6.8-30.147-4.68-22.212 5.87-32.587 12.57-36.794 8.02-5.045 16.91-5.045 19.83-5.045h37.726l23.022 0.043c11.422 0 31.688 4.664 39.088 35.906 2.025 8.551 25.828 112.47 33.076 144.12l5.889 25.723-216.74-0.001"/><path d="m184.12 127.25 5.403 23.709h32.126c-1.708-7.391-3.564-15.432-5.472-23.709h-32.057zm-60.307-30.897-22.791 24.452h30.192l-6.09-25.977c-0.434 0.547-0.874 1.059-1.311 1.525zm-32.418 34.78-6.126 6.574 3.19 13.659h7.724l-4.788-20.233zm-20.502-53.587 6.53-7.003-3.88-16.452h-7.91l5.26 23.455zm223.41 119.23-29.977-126.53-10.628-4.467 29.816 130.99h-134.49l-1.929-8.231c-0.222 0.243-0.444 0.483-0.675 0.709l-0.204 0.198c-1.21 1.155-2.592 2.166-4.112 3.009l-0.482 0.259c-0.006 0.003-0.013 0.007-0.018 0.009l-0.075 0.039c-3.814 1.966-8.339 2.922-13.827 2.922h-55.326c-15.904 0-27.037-8.582-30.567-23.641l-8.368-37.16c-2.634-11.248 1.503-18.722 5.501-23.082l23.131-24.803h-39.712l-11.434-48.5c-3.738-15.902 5.042-22.863 8.958-25.097l0.438-0.244c0.898-0.486 1.847-0.918 2.831-1.287l0.38-0.141c0.446-0.158 0.909-0.305 1.373-0.441 0.218-0.065 0.44-0.125 0.727-0.201l0.199-0.051c0.385-0.1 0.771-0.196 1.123-0.268 0.64-0.137 1.305-0.254 2-0.353 0.233-0.034 0.475-0.063 0.715-0.09l0.107-0.012c0.513-0.06 1.04-0.113 1.552-0.15 0.244-0.02 0.485-0.035 0.778-0.053 0.749-0.041 1.516-0.066 2.321-0.066h54.896c0.966 0 1.959 0.035 3.036 0.109l0.414 0.035c0.792 0.063 1.588 0.15 2.379 0.264l0.377 0.052c0.127 0.018 0.251 0.04 0.374 0.063 3.642 0.592 6.989 1.713 9.961 3.34l0.317 0.176-0.957-4.082h51.427l16.936 71.986h32.162c-4.755-20.733-8.582-37.545-9.564-42.207-3.256-15.461 2.609-22.818 8.1-26.268 5-3.146 10.68-3.511 14.51-3.511h37.726l0.01 0.043h23.012c10.344 0 23.835 4.894 29.357 28.21 2.252 9.51 32.025 139.54 33.291 145.07l3.081 13.455h-50.985" fill="#bd1f25"/><path d="m197.18 25.281-48.29 205.97h36.047l21.17-89.982h49.814l6.4473-29.08h-49.455l13.02-57.137h58.045l7.1055-29.77h-93.906zm104.06 0s-38.754 167.37-42.535 185.33c-2.2138 10.515-0.10508 15.788 3.9824 18.355l9.25-5.7539h30.879l3.7812-18.902-21.742 10.082 42.221-180.86 10.084-8.252h-35.92zm77.51 0-33.082 139.64 13.232-3.7793s-19.942 26.687-39.477 62.07h20.887c12.919 0 20.482-5.6697 24.42-22.055 3.9388-16.384 38.912-167.62 38.912-167.62l10.713-8.252h-35.605zm-288.28 1.358c-13.588 0-21.852 6.2735-24.795 18.822l-10.486 46.564c-1.5512 6.6238-0.36883 12.069 3.5449 16.338l53.117 56.957-9.0371 38.316h-37.947l9.2246-41.141h-35.254l-11.791 50.012c-2.9212 12.466 2.4139 18.688 16.004 18.688h68.619c13.684 0 21.986-6.2212 24.91-18.688l11.609-49.473c1.615-6.8838 0.45328-12.417-3.4805-16.602l-53.18-57.055 8.1367-34.836h37.947l-9.041 38.201h35.793l11.441-47.545c2.9-12.372-2.4927-18.561-16.178-18.561h-69.158z" transform="matrix(.8 0 0 -.8 0 206)" fill="#fff"/><path d="m291.08 25.281-10.869 8.5879-3.0879 12.924h-58.08l-2.7617 11.715-12.957 56.869-1.5918 5.2461 11.33-8.4356h-0.15234l13.02-57.137h58.045l7.1055-29.77zm46.072 0-10.084 8.252-42.221 180.86 21.742-10.082-3.7812 18.902h-30.879l-9.25 5.7539c2.8938 1.8162 6.7774 2.2832 10.826 2.2832h36.234l9.7656-42.064-21.738 9.1387 39.385-173.04zm77.195 0-10.713 8.252s-34.973 151.24-38.912 167.62c-3.9375 16.385-11.501 22.055-24.42 22.055h-20.887c-1.4438 2.6162-2.8859 5.2774-4.3184 7.9824h34.344c14.809 0 20.478-12.707 23.314-24.682 2.8362-11.972 41.592-181.23 41.592-181.23zm-243.64 3.5332-6.8828 5.3789c3.1175 3.0825 3.9327 7.885 2.3965 14.438l-8.5156 35.387h-18.125l-11.012 8.7266h35.793l11.441-47.545c1.9112-8.1538 0.1968-13.604-5.0957-16.385zm-77.821 16.895-2.797 12.268-8.137 34.835 53.175 57.058c3.935 4.185 5.0942 9.7185 3.4805 16.604l-10.473 44.631c-5.45 11.18-13.52 11.032-25.764 11.426h-61.939l-8.7031 6.3066c2.7412 1.565 6.5023 2.3613 11.322 2.3613h68.619c2.0262 0 3.9183-0.14742 5.707-0.41992 10.302-1.575 16.713-7.6501 19.203-18.268l11.609-49.473c1.615-6.8838 0.45328-12.417-3.4805-16.602l-53.18-57.055 8.1367-34.836h37.947l10.482-8.834h-55.213zm169.49 66.479-10.828 8.7656-2.7246 12.307h-49.928l-2.4297 11.465-18.498 78.627h-17.984l-11.086 7.8984h36.047l21.17-89.982h49.814l6.4473-29.08zm-188.28 50.309-10.609 8.0176-8.1973 36.555-1.0332 4.0332 5.7324-4.0332 4.8828-3.4316 9.2246-41.141z" transform="matrix(.8 0 0 -.8 0 206)" fill="#8e908f"/></g></g></svg>
