<?xml version="1.0" encoding="UTF-8" standalone="no"?>
<svg xmlns:rdf="http://www.w3.org/1999/02/22-rdf-syntax-ns#" xmlns="http://www.w3.org/2000/svg" height="156.87" width="202" version="1.1" xmlns:cc="http://creativecommons.org/ns#" xmlns:dc="http://purl.org/dc/elements/1.1/" viewBox="0 0 161.6 125.49642">
 <g transform="matrix(1.6781 0 0 1.6781 .43286 .53265)">
  <path fill="#fdb813" d="m49.58 11.574c6.416-1.9881 12.815-4.0326 19.222-6.0491-2.017 6.1851-4.044 12.364-6.07 18.543 0.92284-0.45378 1.8737-0.85911 2.8603-1.1574 8.2189-2.5722 16.42-5.2057 24.649-7.7473-1.4913 4.6219-3.0209 9.231-4.5097 13.855-4.9329 1.5576-9.8658 3.1101-14.796 4.6703-1.6366 5.0272-3.2733 10.057-4.9074 15.087 4.8539-1.3231 9.7052-2.6589 14.564-3.9667-1.5015 4.5454-2.9572 9.1086-4.4689 13.651-6.1438 1.6876-12.295 3.3447-18.439 5.0272-2.2281 0.66792-4.7213 1.2466-6.9468 0.26768-2.0369-0.83362-3.3192-2.9827-3.3702-5.1445-0.181-2.8603 1.0478-5.5192 1.8686-8.1934-4.2395 1.5704-8.4509 3.2096-12.696 4.7697 0.47417-1.5551 1.0044-3.0897 1.5245-4.627-1.1064 1.6825-2.1134 3.4288-3.1943 5.1292-0.1861 0.34416-0.59654 0.43083-0.92285 0.58634-3.3727 1.3154-6.7148 2.6997-10.082 4.0279-0.07137-3.077-0.14531-6.1515-0.28042-9.2259-1.2135 3.6149-2.3708 7.2502-3.5818 10.868-4.6907 2.0012-9.3967 3.9693-14.077 5.9908 5.147-15.83 10.365-31.636 15.51-47.47 6.0469-1.9145 12.096-3.8163 18.146-5.7232 0.11982 4.1375 0.23964 8.2776 0.3722 12.415 3.2504-5.1674 6.4038-10.399 9.6261-15.584m1.7106 1.3741c-0.38494 0.07393-0.67302 0.32376-0.84382 0.66537-4.0228 6.5797-8.1068 13.121-12.104 19.714-0.20904-5.3714-0.3569-10.748-0.48692-16.124-4.9992 1.5551-9.9907 3.128-14.975 4.7238-4.6474 14.258-9.3432 28.499-13.975 42.759 3.2147-1.3792 6.4472-2.715 9.6516-4.1222 2.1771-6.6843 4.3771-13.363 6.5619-20.045 0.1657 5.7079 0.30592 11.418 0.52515 17.126 2.2408-0.905 4.4817-1.8075 6.7301-2.6921 0.50476-0.21159 1.1166-0.34925 1.3766-0.89225 3.6098-5.8812 7.2273-11.76 10.85-17.636-1.7412 5.2337-3.4594 10.475-5.1496 15.724 4.2216-1.5704 8.4305-3.1764 12.652-4.7519-0.65772 2.1389-1.3817 4.2573-2.0624 6.3885-0.57104 1.6978-1.1013 3.5078-0.79793 5.3127 0.181 1.1956 0.87696 2.3428 1.9859 2.8858 1.476 0.76224 3.2223 0.49456 4.7621 0.08412 6.2381-1.7055 12.476-3.4084 18.717-5.096 1.0172-3.1764 2.0879-6.3325 3.0948-9.5114-4.8513 1.2925-9.6924 2.6232-14.534 3.954 2.0904-6.4089 4.2114-12.808 6.3299-19.206 4.8896-1.5551 9.7868-3.0846 14.679-4.6372 1.0605-3.2019 2.0981-6.414 3.1433-9.6236-7.1737 2.2383-14.337 4.5148-21.503 6.7709-2.6666 0.80303-5.0247 2.4703-6.799 4.5989 2.263-6.999 4.565-13.987 6.857-20.977-4.905 1.5065-9.789 3.085-14.687 4.606z"/>
  <path fill="#fff" d="m51.29 12.948c4.8972-1.5219 9.7817-3.0999 14.687-4.6066-2.2918 6.9902-4.5938 13.978-6.8576 20.976 1.7743-2.1287 4.1324-3.7959 6.799-4.5989 7.1661-2.2561 14.33-4.5327 21.503-6.7709-1.0452 3.2096-2.0828 6.4217-3.1433 9.6236-4.8921 1.5525-9.7893 3.0821-14.679 4.6372-2.1185 6.3987-4.2395 12.797-6.3299 19.206 4.8411-1.3307 9.6822-2.6615 14.534-3.954-1.007 3.179-2.0777 6.335-3.0948 9.5114-6.2407 1.6876-12.479 3.3906-18.717 5.096-1.5398 0.41044-3.286 0.67811-4.7621-0.08412-1.1089-0.543-1.8049-1.6902-1.9859-2.8858-0.30337-1.8049 0.22689-3.6149 0.79793-5.3127 0.68066-2.1312 1.4047-4.2497 2.0624-6.3885-4.2216 1.5755-8.4305 3.1815-12.652 4.7519 1.6902-5.249 3.4084-10.49 5.1496-15.724-3.6226 5.8761-7.24 11.755-10.85 17.636-0.26003 0.543-0.87186 0.68066-1.3766 0.89225-2.2485 0.88461-4.4893 1.7871-6.7301 2.6921-0.21924-5.7079-0.35945-11.418-0.52515-17.126-2.1847 6.6817-4.3848 13.361-6.5619 20.045-3.2045 1.4072-6.437 2.743-9.6516 4.1222 4.6321-14.261 9.3279-28.501 13.975-42.759 4.9839-1.5959 9.9754-3.1688 14.975-4.7238 0.13001 5.3765 0.27787 10.753 0.48692 16.124 3.9973-6.5925 8.0813-13.134 12.104-19.714 0.1708-0.34161 0.45887-0.59144 0.84382-0.66537m0.1708 1.1089c-4.724 7.637-9.384 15.315-14.146 22.925-0.145-6.101-0.336-12.204-0.54-18.304-4.344 1.3664-8.688 2.7303-13.027 4.1095-4.3542 13.315-8.716 26.627-13.065 39.945 2.3352-0.95344 4.6423-1.9808 6.9774-2.9368 2.7813-8.4943 5.5677-16.989 8.3413-25.485 0.24983 7.2477 0.44358 14.498 0.65772 21.748 1.8126-0.71635 3.62-1.4404 5.4249-2.1695 0.33396-0.14531 0.7189-0.27022 0.88206-0.63222 5.1649-8.3897 10.32-16.79 15.49-25.177-2.4167 7.4236-4.8513 14.842-7.2859 22.26 3.7628-1.4251 7.5434-2.8119 11.301-4.2522 3.9361-12.028 7.8799-24.053 11.803-36.085-4.2701 1.3613-8.5503 2.6768-12.813 4.0559m14.735 11.717c-3.0948 0.95599-5.7461 3.1433-7.3853 5.922-1.0911 1.7284-1.6468 3.7118-2.2714 5.639-1.9222 5.9067-3.8469 11.813-5.764 17.72-0.40789 1.3715-0.75204 2.8527-0.37475 4.2726 0.24473 0.97128 1.0682 1.7565 2.0547 1.9426 1.3129 0.23708 2.6385-0.06118 3.8953-0.42828 5.8379-1.5984 11.678-3.1841 17.516-4.7774 0.73675-2.3505 1.5398-4.6831 2.2765-7.0361-4.8513 1.3205-9.7052 2.6436-14.554 3.9667 2.3148-7.0284 4.5607-14.082 6.8933-21.106 0.13001-0.56084 0.7291-0.70361 1.1982-0.86166 4.5811-1.4302 9.1571-2.8858 13.736-4.3236 0.78518-2.3581 1.5398-4.7238 2.3199-7.0845-6.5186 2.0318-13.027 4.1018-19.54 6.154z"/>
  <path d="m78.221 14.59c-4.3529 1.4149-8.7342 2.7428-13.084 4.1641 3.6423-0.31229 7.2496-1.0261 10.803-1.877-4.3784 13.448-8.7995 26.882-13.188 40.326 0.56403-0.20394 1.1308-0.4008 1.7012-0.60156 4.637-13.986 9.185-28.003 13.768-42.011zm-33.518 10.607c-4.678 1.4212-9.3277 2.9317-13.996 4.3848 4.2318-0.52261 8.3714-1.6369 12.559-2.4336 0.26768 7.9315 0.45889 15.868 0.66602 23.803 0.5003-1.0516 1.5754-1.9529 1.3906-3.2148-0.21988-7.5109-0.463-15.025-0.61914-22.539zm60.346 1.4336c-7.2177 2.2147-14.394 4.5614-21.611 6.7793 0.70424-0.07329 1.4081-0.17342 2.0996-0.33594 5.755-1.332 11.525-2.6199 17.223-4.1973-0.41427 1.3129-0.83492 2.6232-1.2715 3.9297 0.56722-0.17526 1.1386-0.34745 1.709-0.51953 0.61501-1.8865 1.2302-3.773 1.8516-5.6562zm-45.031 3.9746c-7.428 12.029-14.82 24.084-22.172 36.158 0.83171-0.40151 1.989-0.46589 2.4766-1.3613 5.8666-9.5407 11.738-19.077 17.602-28.621 0.91775-1.9693 1.4054-4.114 2.0938-6.1758zm24.209 8.916c-1.042 0.34097-1.9148 1.1109-2.2207 2.1816-2.7851 8.5051-5.5131 17.028-8.3301 25.523 0.5481-0.13384 1.0991-0.26779 1.6504-0.39844 3.0273-9.0819 5.9751-18.193 8.9004-27.307zm-53.605 0.05469c-0.45887 1.1121-0.81569 2.2649-1.1758 3.4121-3.4161 10.497-6.8408 20.99-10.244 31.49 0.5959-0.26449 1.1939-0.52899 1.793-0.78711 3.0305-9.2858 6.0588-18.575 9.1211-27.848 0.76798-2.0044 0.22862-4.1867 0.50586-6.2676zm62.477 23.695c-5.567 1.5041-11.13 3.0332-16.697 4.5469 4.8341-0.62139 9.6206-1.5778 14.436-2.3203-0.4047 1.3097-0.85743 2.6095-1.2812 3.916 0.54491-0.1434 1.0925-0.28362 1.6406-0.42383 0.70424-1.8833 1.2714-3.81 1.9023-5.7188z" transform="scale(.8)" stroke="#6280a7" stroke-width="1.243" fill="#6280a7"/>
  <path d="m92.703 0.28516c-11.201 3.5052-22.392 7.0417-33.584 10.582-1.7781 2.8775-3.5525 5.758-5.3242 8.6387 0.0064-2.3039-0.12162-4.6082-0.17578-6.9121-10.073 3.167-20.137 6.361-30.213 9.515-7.683 23.489-15.382 46.971-23.049 70.463 18.126-7.74 36.204-15.627 54.68-22.504-0.36327 2.8775-0.19416 5.9393 1.2207 8.5332 1.6889 3.3141 5.1635 5.5348 8.8281 5.9395 3.2663 0.46206 6.4685-0.52726 9.5723-1.4004 7.9602-2.1637 15.91-4.3547 23.877-6.4961 2.9476-8.9608 5.8544-17.936 8.7988-26.9-6.0769 1.6316-12.144 3.2973-18.215 4.9512 0.96236-3.04 1.9974-6.0532 2.9375-9.0996 6.1566-2.0012 12.346-3.9099 18.521-5.8633 2.9699-9.1552 5.9636-18.302 8.959-27.451-11.434 3.5913-22.857 7.2114-34.291 10.803 2.4919-7.5969 4.997-15.189 7.457-22.799zm-6.701 6.621c-2.5206 7.7307-5.0545 15.455-7.5879 23.18 1.1536-0.56722 2.3429-1.0744 3.5762-1.4473 10.274-3.2153 20.524-6.5065 30.811-9.6836-1.8642 5.7773-3.7757 11.538-5.6367 17.318-6.1661 1.947-12.331 3.8877-18.494 5.8379-2.0458 6.284-4.0921 12.572-6.1348 18.859 6.0673-1.6539 12.131-3.3242 18.205-4.959-1.8769 5.6817-3.6963 11.386-5.5859 17.064-7.6798 2.1095-15.369 4.182-23.049 6.2852-2.7851 0.83489-5.9017 1.5576-8.6836 0.33398-2.5461-1.042-4.1492-3.7294-4.2129-6.4316-0.22625-3.5754 1.3098-6.8975 2.3359-10.24-5.2994 1.963-10.563 4.0107-15.869 5.9609 0.59271-1.9438 1.2542-3.8617 1.9043-5.7832-1.383 2.1032-2.6411 4.2866-3.9922 6.4121-0.23262 0.43019-0.74641 0.53804-1.1543 0.73242-4.2159 1.6443-8.392 3.3749-12.602 5.0352-0.08922-3.8463-0.18267-7.6901-0.35156-11.533-1.5168 4.5186-2.9629 9.0622-4.4766 13.584-5.8634 2.5015-11.747 4.9632-17.598 7.4902 6.4338-19.789 12.958-39.548 19.389-59.34 7.5587-2.3932 15.12-4.7688 22.682-7.1523 0.14977 5.1719 0.29914 10.346 0.46484 15.518 4.0629-6.4593 8.0053-12.997 12.033-19.479 8.0207-2.4856 16.019-5.0419 24.027-7.5625zm-5.6602 5.5957c-5.3376 1.7017-10.688 3.3463-16.016 5.0703-5.9048 9.5439-11.729 19.142-17.682 28.654-0.18164-7.6256-0.42085-15.255-0.67578-22.881-5.43 1.708-10.86 3.4128-16.283 5.1367-5.4428 16.644-10.896 33.285-16.332 49.932 2.9189-1.1918 5.8018-2.4769 8.7207-3.6719 3.4766-10.618 6.9607-21.234 10.428-31.855 0.31229 9.0596 0.55459 18.123 0.82227 27.186 2.2657-0.89544 4.5251-1.8015 6.7812-2.7129 0.41745-0.18164 0.89762-0.33852 1.1016-0.79102 6.4561-10.487 12.901-20.987 19.363-31.471-3.0209 9.2794-6.0642 18.553-9.1074 27.826 4.7035-1.7813 9.4279-3.514 14.125-5.3145 4.9201-15.034 9.8497-30.067 14.754-45.107zm-2.1211 2.0879c-4.5824 14.008-9.131 28.026-13.768 42.012-0.57041 0.20076-1.1371 0.39762-1.7012 0.60156 4.388-13.444 8.8091-26.879 13.188-40.326-3.5531 0.85083-7.1604 1.5647-10.803 1.877 4.3497-1.4212 8.7311-2.7492 13.084-4.1641zm28.949 9.9355c-8.1482 2.5397-16.282 5.1262-24.424 7.6914-3.8686 1.195-7.1834 3.9289-9.2324 7.4023-1.3639 2.1605-2.0591 4.6397-2.8398 7.0488-2.4027 7.3834-4.8087 14.767-7.2051 22.15-0.50986 1.7144-0.94037 3.5668-0.46875 5.3418 0.30592 1.2141 1.3371 2.1951 2.5703 2.4277 1.6411 0.29636 3.2981-0.07628 4.8691-0.53516 7.2974-1.998 14.597-3.981 21.895-5.9727 0.92093-2.9381 1.9248-5.8537 2.8457-8.7949-6.0641 1.6507-12.132 3.3051-18.193 4.959 2.8935-8.7855 5.7014-17.604 8.6172-26.383 0.16252-0.70106 0.91171-0.8786 1.498-1.0762 5.7264-1.7877 11.447-3.607 17.17-5.4043 0.98148-2.9476 1.9233-5.9047 2.8984-8.8555zm-62.467 0.67188c0.15614 7.5141 0.39926 15.028 0.61914 22.539 0.18482 1.2619-0.89032 2.1633-1.3906 3.2148-0.20713-7.9347-0.39834-15.871-0.66602-23.803-4.1872 0.79666-8.3268 1.911-12.559 2.4336 4.6684-1.4531 9.3181-2.9635 13.996-4.3848zm60.346 1.4336c-0.62139 1.8833-1.2366 3.7698-1.8516 5.6562-0.57041 0.17208-1.1418 0.34427-1.709 0.51953 0.43657-1.3065 0.85722-2.6168 1.2715-3.9297-5.6977 1.5774-11.468 2.8653-17.223 4.1973-0.6915 0.16252-1.3954 0.26264-2.0996 0.33594 7.2177-2.2179 14.394-4.5646 21.611-6.7793zm-45.031 3.9746c-0.68831 2.0617-1.176 4.2064-2.0938 6.1758-5.8634 9.5439-11.735 19.08-17.602 28.621-0.48755 0.89544-1.6449 0.95981-2.4766 1.3613 7.3515-12.074 14.744-24.129 22.172-36.158zm24.209 8.916c-2.9253 9.1137-5.8731 18.225-8.9004 27.307-0.55129 0.13065-1.1023 0.2646-1.6504 0.39844 2.817-8.4955 5.545-17.018 8.3301-25.523 0.30592-1.0707 1.1787-1.8407 2.2207-2.1816zm-53.605 0.05469c-0.27724 2.0809 0.26212 4.2632-0.50586 6.2676-3.0623 9.2731-6.0906 18.562-9.1211 27.848-0.59908 0.25812-1.1971 0.52262-1.793 0.78711 3.4033-10.5 6.8281-20.994 10.244-31.49 0.36009-1.1472 0.71691-2.3 1.1758-3.4121zm62.477 23.695c-0.63095 1.9088-1.1981 3.8355-1.9023 5.7188-0.5481 0.14021-1.0957 0.28043-1.6406 0.42383 0.42382-1.3065 0.87655-2.6063 1.2812-3.916-4.815 0.74248-9.6014 1.6989-14.436 2.3203 5.567-1.5136 11.13-3.0428 16.697-4.5469z" transform="scale(.8)" fill="#003768"/>
 </g>
</svg>
