<svg xmlns="http://www.w3.org/2000/svg" height="186.79" width="248" viewBox="0 0 248 186.79">
 <g transform="matrix(1.0266 0 0 1.0266 .87023 .061167)">
  <path d="m234.83 108.33c-4.054 9.324-11.453 12.162-19.662 13.378-2.939 3.244-9.02 7.298-17.027 9.021v0.101c0.101 0.304 2.432 7.905-3.851 15.608-0.305 3.243-1.926 6.993-5.879 9.325-2.939 1.722-8.209 3.75-13.784 4.054-17.939 0-16.824-15.102-32.027-19.764-1.317-0.405-2.635-0.608-4.054-0.608-17.838 0.405-20.169 22.095-14.594 41.554-10.034-8.818-28.48-23.716-30.304-49.054-18.75-0.405-38.108 0.304-56.25 5.574 1.5202-3.04 2.9391-6.182 4.5608-9.223-14.088 1.419-28.176 3.446-41.96 6.588 21.79-42.061 65.473-76.52 118.07-87.973 7.196-10.541 22.703-19.054 31.419-23.514 21.791-11.149 14.189-21.385 13.885-22.399 0 0 10.237 4.9662 14.088 12.466 2.939 5.6757 5.27 14.797 0.102 25.946-0.609 1.2162-1.115 2.4324-1.521 3.6486 13.176 3.5473 25.541 10.034 35.879 18.953 4.459 3.8514 7.5 8.5135 8.513 13.176 4.865 3.2432 15.304 12.466 18.953 22.297 0.608 2.1284 0.304 6.9935-4.561 10.844z" fill="#fff"/>
  <path d="m168.75 8.8047s1.9244 8.1078-17.434 17.635c-9.932 4.8649-24.729 13.683-30.811 23.514-79.966 16.824-113.51 79.662-113.51 79.662s16.319-3.4452 41.758-5.5742c-1.5203 2.534-3.0419 5.1692-4.3594 7.9062 4.6621-1.318 27.872-4.4608 52.906-3.5488 0.1013 20.068 12.973 35.676 21.689 43.277-5.777-27.466 11.959-39.019 24.83-35.066 16.926 5.169 15.103 20.371 31.42 19.561 4.865-0.203 9.0187-2.0278 11.553-3.5488 3.649-2.128 4.2572-5.7756 4.1562-7.5996 6.081-6.487 3.9531-13.074 3.9531-13.074-2.838 1.216-9.425 4.6616-15 1.7226-3.75-2.433-3.7503-4.6627-2.0274-12.973 0.304-1.419 0.60755-2.9404 0.81055-4.3594 0 0 7.6019-6.1825 20.17-0.81055-0.304 6.283-1.5215 11.756-1.5215 11.756s10.946-2.1275 16.115-9.0195c8.006-0.912 15.101-3.3427 18.547-12.262 5.169-3.548 4.1562-7.502 4.1562-7.502-3.446-9.2229-13.582-17.533-17.332-20.066-1.52-1.0135-1.5188-1.1149-1.9238-2.8379-0.507-2.5338-2.2313-6.5889-7.1973-10.846-10.44-9.0202-23.716-15.911-38.107-19.053 0.608-2.4325 1.6219-4.9666 2.8379-7.7031 8.818-19.054-5.6758-29.189-5.6758-29.189zm43.035 86.301c3.7912 0.0065 7.3109 0.82259 9.3633 2.3809 2.736 1.7229 5.5741 7.0945 1.6211 10.439-4.763 3.952-11.958 4.2559-12.262 4.2559-1.723 3.446-5.5752 6.8929-7.9062 8.2109 0.913-3.142 1.1147-6.7908 1.0137-9.4258-9.122-6.284-23.818-5.0671-33.547 2.8379 6.283 2.432-4.1572 18.344 5.6738 24.83 5.777 3.142 11.757 0.10215 15-1.2148 0.102 0.304-1.6201 4.1541-6.7891 6.7891l0.10157 0.10157s1.5192 1.6209-0.50781 2.8379c-2.027 1.216-4.6628 2.1283-8.7168 2.7363-4.865 0.70999-10.135-3.0401-13.176-7.7031-3.75-5.675-11.047-11.654-20.574-13.377 2.433-1.318 5.1699-2.332 5.1699-2.332-6.892-0.912-12.467-0.20277-17.129 1.1152 11.554-13.379 28.48-17.838 28.48-17.838-1.52-0.709-3.751-1.3177-6.082-1.7227 14.798-7.601 31.015-9.9333 44.596-5.8789 2.2806-4.8144 9.3513-7.0538 15.67-7.043z" fill="#00205c"/>
  <path d="m157.7 109.65c-1.521-0.71-3.75-1.318-6.081-1.723 14.797-7.602 31.013-9.9327 44.594-5.879 3.649-7.7024 19.561-8.8173 25.034-4.6619 2.331-0.7094 5.574 0.4055 7.804 1.419-2.737-5.2703-10.642-13.074-13.682-15.101-6.994-4.6621-2.838-8.2094-9.73-14.189-9.831-8.5135-21.993-14.696-35.169-17.432-0.101 2.8378 0.304 5.1689 1.216 7.1959-3.547-2.2297-5.169-5.0675-5.777-8.0067-1.824-9.9324 8.412-21.892 1.014-22.095-9.122-0.3041-30.71 11.453-38.615 25.642-3.244 5.777-4.156 11.858-1.115 17.838-7.196-4.9662-9.73-10.236-9.223-15.304-39.527 11.149-69.831 36.486-85.439 59.291 8.3108-0.912 15.405-1.622 22.601-1.824 10.135-12.872 22.095-20.98 32.23-25.946-11.655 9.223-17.736 19.662-20.574 25.844 8.8176 0.203 18.851 1.014 31.824 2.534 2.8382-13.885 11.25-26.959 24.121-35.98 6.994-4.8649 13.987-8.1081 21.386-9.527-14.696 5.6756-26.149 17.23-31.318 31.318 4.662-4.9664 10.439-9.2231 16.824-12.466-9.324 9.1216-15.506 21.081-16.925 34.56-0.507 4.46-0.203 9.223 0.709 13.683 1.926-2.737 6.892-8.615 16.115-11.351 11.25-13.48 28.176-17.838 28.176-17.838zm47.027-31.318c1.52 5.9797 6.689 10.135 6.689 10.135-1.824-0.1013-3.142-0.4054-4.156-0.7094-2.027-1.0135-2.128-2.7365-3.851-3.8514 0.304 1.0135 0 1.6216-1.013 1.6216-0.507-0.1013-0.913-0.2027-1.318-0.304-0.101 0-0.101 0-0.203-0.1014-4.155-1.5202-4.256-6.081-10.033-6.3851 0 0 4.56-1.1149 7.905-0.4054-7.095-5.8784-22.703-9.3243-22.703-9.3243s16.419 0.1013 28.683 9.3243zm-65.777-13.784c-9.933-8.8176 11.959-22.905 14.493-23.412-5.676 6.2838-6.993 11.149-6.385 14.899-2.433-0.7095-3.142-2.8378-3.142-2.8378-1.622 6.2837 2.736 10.236 5.878 12.061-3.243 0.8108-8.209 1.5202-10.844-0.7095z" fill="#bc955c"/>
 </g>
</svg>