<?xml version="1.0" encoding="utf-8"?>
<!-- Generator: Adobe Illustrator 22.1.0, SVG Export Plug-In . SVG Version: 6.00 Build 0)  -->
<svg version="1.1" id="Layer_1" xmlns="http://www.w3.org/2000/svg" xmlns:xlink="http://www.w3.org/1999/xlink" x="0px" y="0px"
	 width="250.2px" height="168.52px" viewBox="0 0 250.2 168.52" enable-background="new 0 0 250.2 168.52" xml:space="preserve">
<g>
	<path fill="#FFBA36" d="M216.57,107.65c-9.83-7.14-21.74-18.49-19.26-32.01c-3.11-3.03-6.02-5.9-6.89-10.35l2.04,0.13
		c2.72-12.29,0.2-24.59-5.09-35.96c3.39-6.5,3.55-14.91-0.79-21.01c-6.15-8.65-16.81-10.24-26.71-5.55
		c-8.44-2.92-18.06-4.08-26.61-0.98c-0.32-0.12-0.65-0.24-0.87-0.31c-8.35-2.72-17.6-1.54-25.76,1.28
		c-8.4-4.29-18.82-3.32-25.35,3.84c-5.62,6.17-5.95,15.51-2.18,22.73C73.8,40.82,71.36,52.74,74,65.41l2.04-0.12
		c-0.87,4.45-2.92,6.75-6.89,10.35l0.29,1.67c-0.57,9.18-4.14,15.64-12.28,22.8L0.1,100.02l29.42,15.18l-6.32,22.62
		c-1.35,4.43,0.22,8.76,4.83,10.18c1.91,0.59,4,0.41,5.98,0.4c5.33,0,10.66,0,15.99,0l2.04,1.75l-5.81,4.65l8.07,4.75l-6.67,8.9
		h173.64l-6.67-8.9l8.07-4.75l-4.18-3.34l3.69-3.11h4.97c8.38-0.06,10.5,0.36,12.81-0.91c3.3-1.66,4.1-4.9,4.62-8.41
		c0.66-3.75,1.32-7.49,1.97-11.24c1.18-6.72,2.36-13.43,3.54-20.15H216.57z"/>
	<path d="M135.12,4.62c2.42-0.79,5.44-1.35,9.04-1.36c3.01,0,6.42,0.38,10.22,1.32c1.91,0.47,3.72,1.03,5.44,1.67l0.29,0.11
		l0.33-0.16c2.48-1.45,6.09-2.73,9.98-2.77c3.64-0.02,7.53,1.04,10.99,4.05c7.63,6.63,5.58,16.61,2.65,21.37l-0.29,0.46l0.16,0.33
		c4.68,9.63,6.13,17.9,6.4,23.75c0.21,4.46-0.25,7.52-0.48,8.7l-2.61-0.16l-0.37,0l0.01,0.71c0.02,1.46,0.54,4.7,1.3,6.46
		c1.96,4.53,4.79,6.78,5.68,7.65c-0.13,0.7-0.07,8.32,2.79,13.88c5.43,10.51,12.48,15.57,18.51,19.95h31.45l-5.24,29.81
		c-0.53,3.13-2.03,5.07-5.65,5.07l-17.88,0l-5.57,4.79l5.25,4.2l-7.23,4.25l5.14,6.85H53.45l5.14-6.85l-7.23-4.25l5.25-4.2
		l-5.52-4.74l-20.42,0.01c-2.26,0-5.01-1.23-5.01-4.67c0-0.6,0.16-1.5,0.36-2.27l6.96-24.88l-21.33-10.73l46.97,0.07
		c3.31-2.65,6.79-6.28,10.28-11.96c3.27-5.33,3.81-13.62,3.69-14.32c0.89-0.87,3.72-3.12,5.68-7.65c0.76-1.76,1.29-5.01,1.3-6.46
		l0.01-0.71l-2.98,0.17c-0.23-1.17-0.7-4.23-0.48-8.71c0.28-5.85,1.72-14.12,6.4-23.75l0.16-0.33l-0.29-0.46
		c-2.93-4.76-4.99-14.74,2.65-21.37c7.2-6.25,16.22-4.09,21.03-1.27l0.27,0.16l0.29-0.11c1.72-0.64,3.53-1.19,5.44-1.67
		c8.43-2.09,14.87-1.4,19.33,0.04c0.57,0.18,1.84,0.69,1.84,0.69S134.55,4.81,135.12,4.62z"/>
	<path fill="#E3BA81" d="M176.97,12.67c-4.15-3.6-9.79-2.52-13.2-0.44c-1.2,0.73-2.18,1.52-2.88,2.14
		c-2.55-1.38-5.34-2.44-8.39-3.18c-15.07-3.64-19.24,2.35-19.24,2.35s-4-6.11-19.05-2.4c-2.94,0.72-5.69,1.75-8.25,3.08
		c-0.67-0.56-1.72-1.37-3.1-2.21c-3.41-2.08-9.17-2.95-13.31,0.65c-2.69,2.34-3.27,5.66-2.78,8.57c0.71-1.58,2.57-4.72,6.44-5.8
		c-0.39,0.57-0.73,1.18-0.94,1.81C91.78,18.73,92,19.32,92,19.32s1.23-2.12,5.29-3c2.02-0.44,3.49,0.13,4.58,0.38
		c-5.13,3.67-9.59,8.91-12.98,15.39c-5.67,10.8-5.46,22.59-5.46,22.59l2.68-0.25c0.22,1.47,0.99,6.81,0.4,11.39
		c-1.07,8.3-6.55,12.96-6.55,12.96s0.02,8.68-5.01,16.7c-3.3,5.25-6.94,9.22-9.84,11.94c0.07,0.43,0.11,0.88,0.12,1.35l0.06,5.47
		c2.35-2.84,4.46-3.66,10.38-3.66h22.59c2.71,0,4.22,0.48,5.72,2.23c0.09,0.1,0.18,0.21,0.26,0.32c1.38-1.71,2.88-2.34,5.08-2.5
		c-6.22-11.02-5.17-16.98-5.17-16.98s2.73,3.19,5.51,4.78c3.21,1.83,4.34,2.28,4.34,2.28l0.22-5.16c3.21,3.69,8.32,8.63,16.84,8.43
		c0.33-2.08-1.04-3.73-3.38-5.04c-1.56-0.87-2.66-1.39-3.82-2.56c-4.21-4.3-3.45-8.89-2.89-13.2c0.76-5.89,0.03-7.34-1.2-12.55
		c-0.87-3.71-2.84-7.69-2.84-7.69l-2.07,0.87c0,0-3.6-5.78-3.06-12c0.53-6.05,3.66-9.44,3.66-9.44s-0.65,4.69,0.6,9.55
		c1.02,3.96,1.86,4.53,1.86,4.53s3.06-1.42,8.07-2.07c3.9-0.51,10.31-0.6,14.57,0c5.94,0.84,8.05,2.07,8.05,2.07
		s0.87-0.78,1.88-4.75c0.93-3.65,0.83-7.21,0.65-9.23l-0.26-1.14l-0.55-1.8l-0.16-0.48c-0.24-0.5-1.38-2.74-3.12-3.99
		c-3.12-2.25-5.02-2.51-5.02-2.51l1.04-4.75c0,0,0.58,2.07,2.13,2.78c2.24,1.04,3.93-1.96,6.98,0.55c1.93,1.58,1.54,4.33,0.7,5.61
		c0.29,0.11,0.59,0.22,0.89,0.33c5.35,2.07,9.17-1.42,9.17-1.42l-3.22-1.69c0,0,2.26-0.43,5.18-2.02c2.62-1.42,3.55-2.78,3.55-2.78
		l-3.05-0.87c0,0,2.24-1.26,3.82-3.55c0.75-1.09,1.09-2.07,1.26-2.99c-0.52-0.59-0.76-1.03-1.26-1.48c-2-1.82-3.55-2.84-3.55-2.84
		s1.93-3,5.73-3.44c3.43-0.4,5.78,0.05,7.39,0.88C178.32,14.07,177.73,13.33,176.97,12.67z M116.39,39.56c0,0-1.53-0.76-2.62-2.35
		c-0.87-1.26-1.3-4.07,0.65-5.67c3.05-2.51,4.75,0.49,6.98-0.55c1.55-0.72,2.13-2.78,2.13-2.78l1.04,4.75c0,0-1.9,0.26-5.02,2.51
		C117.59,36.89,116.39,39.56,116.39,39.56z M143.39,39.94c0.17,2.72-1.83,5.4-1.83,5.4l-3.62,4.75c0,0-2.18-0.43-4.58-0.49
		c-2.18-0.05-5.08,0.49-5.08,0.49l-3.43-4.75c0,0-2.09-2.74-1.92-5.45c0.13-2.01,0.94-2.62,2.51-3.55c2.4-1.42,4.87-1.69,7.96-1.69
		c3.38,0,5.13,0.22,7.53,1.64C142.5,37.22,143.26,37.94,143.39,39.94z"/>
	<path fill="#FFFFFF" d="M122.11,61.33c0,0,4.04-1.8,11.14-1.8c7.08,0,11.14,1.8,11.14,1.8s-0.14,1.96-0.63,3.66
		c-0.8,2.76-2.53,5.95-2.53,5.95s-0.11-3.6-0.71-6.55c-0.29-1.42-1.31-3.33-1.31-3.33l-1.53,2.67c0,0-1.24-1.33-4.45-1.36
		c-3.04-0.03-4.42,1.36-4.42,1.36l-1.53-2.67c0,0-1.02,1.9-1.31,3.33c-0.6,2.95-0.71,6.55-0.71,6.55s-1.67-3.42-2.46-6
		C122.28,63.13,122.11,61.33,122.11,61.33z M129.99,90.24l-1.04,2.02c0,0-1.19-1.96-1.7-3.87c-0.76-2.89-1.21-4.04-1.21-4.04
		s-0.65,1.2-0.91,4.15c-0.12,1.41,0.25,3.55,0.25,3.55s2.46,3.42,7.87,3.33c5.4,0.09,7.87-3.33,7.87-3.33s0.37-2.13,0.25-3.54
		c-0.25-2.95-0.91-4.15-0.91-4.15s-0.4,1.16-1.21,4.04c-0.67,2.4-1.7,3.87-1.7,3.87l-1.04-2.02c0,0-0.67,1.42-3.23,1.47
		C131.17,91.76,129.99,90.24,129.99,90.24z"/>
	<path fill="#F47937" d="M44.6,106.46c1.93,0,2.21,0.37,2.29,2.83l0.68,14.41l4.22-12.7c0.32-0.91,0.44-1.49,0.44-1.92
		c0-0.69-0.36-1.12-1.08-1.28l0.2-1.33h8.31c1.69,0,2.09,0.48,2.13,2.35l0.28,28.34c0.04,2.77,0.32,3.36,1.69,3.58l-0.24,1.33h-7.43
		c-1.49,0-1.85-0.59-1.81-2.88l0.12-18.04l-6.31,20.92h-6.67l-0.8-20.92l-3.98,16.6c-0.2,0.75-0.28,1.33-0.28,1.66
		c0,0.75,0.36,1.23,1.12,1.33l-0.24,1.33h-6.59c-1.12,0-1.57-0.37-1.57-1.23c0-0.37,0.12-0.91,0.24-1.39l7.72-27.62l-11.3-5.41
		L44.6,106.46z M166.12,134.27c-2.29,0-2.89-0.37-2.89-2.13h-1.12l-0.96,5.55c-0.08,0.53-0.28,1.82-0.28,2.14
		c0,0.96,0.44,1.65,1.13,1.98c0.44,0.21,0.92,0.27,2.09,0.27h7.95c3.41,0,4.98-0.85,6.51-3.68c1.29-2.3,2.61-8.27,2.61-11.69
		c0-1.6-0.36-2.94-1.08-3.9c-0.52-0.69-1.33-1.33-2.97-2.35l-2.61-1.6c-1.33-0.8-1.65-1.28-1.65-2.4c0-1.28,0.4-2.3,1.13-2.77
		c0.48-0.32,1-0.43,2.45-0.43h3.41c1.65,0,1.97-0.43,2.41-2.83l0.64-3.95l-25.54-0.04l9.03,4.28c-0.14,0.73-0.34,1.7-0.56,2.59
		c-0.6,2.51-1.08,5.71-1.08,7.21c0,2.56,1.04,4.22,3.82,5.98l2.65,1.6c1.53,0.85,1.97,1.55,1.97,2.88c0,1.07-0.36,2.08-0.96,2.61
		c-0.6,0.53-1.08,0.69-3.05,0.69H166.12z M71.92,124.42c-1.01,4.22-1.57,7.73-1.57,9.61c0,1.63,0.6,2.51,1.76,2.51
		c1.41,0,2.17-1.17,3.08-4.76c0.91-3.68,1.54-8.02,1.54-9.48c0-1.75-0.6-2.67-1.73-2.67C73.52,119.62,72.77,120.79,71.92,124.42z
		 M82.2,131.07c-1.92,8.98-4.27,11.36-11.03,11.36c-2.7,0-4.4-0.42-5.56-1.38c-1.32-1.09-2.01-2.97-2.01-5.43
		c0-4.93,1.48-12.66,3.14-16.62c1.6-3.76,4.27-5.26,9.21-5.26c5.5,0,7.61,1.96,7.61,7.23C83.55,123.46,83.04,127.06,82.2,131.07z
		 M95.28,124.09c0.44-0.75,0.69-1.84,0.69-2.97c0-1.29-0.41-1.67-1.89-1.67h-1.63l-0.97,5.68h1.89
		C94.27,125.13,94.84,124.8,95.28,124.09z M86.1,117.66c0.13-0.71,0.16-0.92,0.16-1.17c0-0.71-0.31-1.13-1.01-1.29l0.19-1.05h12.82
		c1.67,0,2.55,0.29,3.18,0.96c0.66,0.75,1.04,2.17,1.04,3.8c0,2.84-0.79,6.18-1.89,8.23c-0.82,1.46-1.67,2.17-3.18,2.63l1.29,4.34
		c0.57,1.92,0.66,2.05,1.82,2.05H101l-0.66,3.72c-0.31,1.8-0.6,2.13-1.98,2.13h-2.92c-1.19,0-1.32-0.17-1.76-2l-2.39-10.23h-0.6
		l-1.57,9.11c-0.06,0.33-0.09,0.58-0.09,0.79c0,0.75,0.31,1.13,1.01,1.29l-0.19,1.04h-6.1c-1.07,0-1.57-0.42-1.57-1.34
		c0-0.21,0.06-0.54,0.13-0.92L86.1,117.66z M113.19,129.35h0.72l-0.79,4.55c-0.28,1.59-0.88,2.26-2.14,2.26
		c-1.51,0-2.17-0.79-2.17-2.55c0-0.79,0.16-2,0.53-4.39c0.44-2.71,1.01-5.51,1.38-6.89c0.53-2.05,1.13-2.63,2.64-2.63h5.06
		c1.35,0,1.73-0.42,1.98-2.21l0.57-3.34h-10.15c-4.84,0-6.32,2.67-8.24,14.54c-0.53,3.3-0.75,5.43-0.75,7.18
		c0,3.3,1.01,5.39,2.95,6.01c1.07,0.33,2.86,0.54,5.09,0.54c5.03,0,5.56-0.25,6.1-0.42c1.26-0.38,1.7-1.29,2.04-3.26l2.07-11.95
		c0.09-0.67,0.13-0.88,0.13-1.13c0-0.96-0.44-1.34-1.54-1.34h-6.48l-0.47,2.76c-0.06,0.29-0.09,0.67-0.09,0.92
		C111.64,128.94,112.12,129.35,113.19,129.35z M130.85,130.61l-0.22-10.15l-3.46,10.15H130.85z M126.95,117.95
		c0.35-0.96,0.5-1.46,0.5-1.8c0-0.54-0.31-0.88-0.91-0.96l0.19-1.05h8.42c0.79,0,1.13,0.17,1.35,0.63c0.13,0.33,0.16,0.63,0.19,1.96
		l0.82,22.39c0.06,1.13,0.41,1.63,1.23,1.84l1.68,1.04h-7.68c-1.45,0-1.67-0.29-1.7-2.09l-0.09-4.47h-5.41l-1.1,3.26
		c-0.16,0.46-0.25,0.84-0.25,1.13c0,0.63,0.28,0.96,0.91,1.13l-0.16,1.04h-5.5c-0.85,0-1.23-0.33-1.23-1.09
		c0-0.33,0.06-0.67,0.25-1.13L126.95,117.95z M138.63,139.75c-0.06,0.29-0.19,1.1-0.19,1.35c0,0.88,0.56,0.91,1.63,0.91h5.03
		l0.16-1.04c-0.66-0.17-0.97-0.54-0.97-1.29c0-0.25,0.03-0.46,0.16-1.17l1.82-10.57l3.46,12.36c0.44,1.59,0.57,1.71,1.89,1.71h4.02
		l4.4-25.6c0.06-0.33,0.09-0.71,0.09-0.96c0-0.88-0.47-1.29-1.54-1.29h-5.03l-0.19,1.05c0.69,0.17,1.01,0.58,1.01,1.29
		c0,0.25-0.03,0.46-0.16,1.17l-1.51,8.77l-3.11-11.19c-0.25-0.96-0.44-1.09-1.63-1.09h-6.19l-0.19,1.05
		c0.69,0.17,1.01,0.58,1.01,1.29c0,0.25-0.03,0.46-0.16,1.17L138.63,139.75z M181.97,139.75c-0.06,0.38-0.09,0.71-0.09,0.92
		c0,0.92,0.47,1.34,1.54,1.34h6.1l0.19-1.04c-0.66-0.17-0.97-0.54-0.97-1.29c0-0.25,0-0.46,0.13-1.17l3.24-18.79h3.02
		c1.35,0,1.54-0.21,1.92-2.46l0.79-4.43h-0.94c-0.31,1.04-0.72,1.34-1.82,1.34h-11.41c-1.6,0-1.79,0.21-2.2,2.59l-0.75,4.39h0.88
		c0.35-1.17,0.66-1.42,1.89-1.38l1.98-0.04L181.97,139.75z M203.8,130.61l-0.22-10.15l-3.46,10.15H203.8z M199.9,117.95
		c0.35-0.96,0.5-1.46,0.5-1.8c0-0.54-0.31-0.88-0.91-0.96l0.19-1.05h8.42c0.79,0,1.13,0.17,1.35,0.63c0.13,0.33,0.16,0.63,0.19,1.96
		l0.82,22.39c0.06,1.13,0.41,1.63,1.23,1.84l-0.19,1.04h-5.82c-1.45,0-1.67-0.29-1.7-2.09l-0.09-4.47h-5.41l-1.1,3.26
		c-0.16,0.46-0.25,0.84-0.25,1.13c0,0.63,0.28,0.96,0.91,1.13l-0.16,1.04h-5.5c-0.85,0-1.23-0.33-1.23-1.09
		c0-0.33,0.06-0.67,0.25-1.13L199.9,117.95z M212.59,139.75c-0.06,0.38-0.09,0.71-0.09,0.92c0,0.92,0.47,1.34,1.54,1.34h6.1
		l0.19-1.04c-0.66-0.17-0.97-0.54-0.97-1.29c0-0.25,0-0.46,0.13-1.17l3.24-18.79h2.65c1.35,0,1.54-0.21,1.92-2.46l0.79-4.43h-0.94
		c-0.31,1.04-0.72,1.34-1.82,1.34h-11.04c-1.6,0-1.79,0.21-2.2,2.59l-0.75,4.39h0.88c0.35-1.17,0.66-1.42,1.89-1.38l1.98-0.04
		L212.59,139.75z M224.82,139.75c-0.06,0.33-0.09,0.71-0.09,0.96c0,0.88,0.47,1.29,1.54,1.29h9.48c1.57,0,1.95-0.33,2.26-2.21
		l0.91-5.3h-0.88c-0.35,1.38-0.75,1.67-2.55,1.67h-3.39l1.1-6.43h4.37c1.57,0,1.92-0.29,2.23-2.17l0.6-3.38h-6.22l0.79-4.72h4.78
		c1.57,0,1.92-0.33,2.26-2.21l0.53-3.09h-13.31L224.82,139.75z"/>
	<polygon fill-rule="evenodd" clip-rule="evenodd" fill="#1B4383" points="60.32,162.11 63.64,157.68 57.39,154.01 61.99,150.33 
		56.11,145.28 212.79,145.28 206.91,150.33 211.51,154.01 205.26,157.68 208.58,162.11 	"/>
	<path fill-rule="evenodd" clip-rule="evenodd" fill="#FFFFFF" d="M77.91,154.6h0.54c0.88,0,2.27-0.01,2.27,0.87
		c0,0.87-1.3,0.89-2.2,0.89h-0.62V154.6z M77.91,152.37v-1.52h0.38c0.8,0,1.82-0.06,1.82,0.73c0,0.73-0.9,0.79-1.7,0.79H77.91z
		 M72.84,158.88h7.44c2.63,0,5.51-0.74,5.51-2.92c0-1.26-1.04-2.11-2.67-2.51v-0.08c1.32-0.29,1.98-1.21,1.98-2.13
		c0-2.44-2.97-2.93-5.89-2.93h-6.37V158.88z M101.11,158.88h10.28v-2.89h-4.77v-1.04h4.21v-2.75h-4.21v-1.01h4.61v-2.89h-10.12
		V158.88z M133.49,155.05l1-3.23h0.2c0.1,0.45,0.2,0.91,0.36,1.36l0.64,1.87H133.49z M132.51,157.56h4.13l0.5,1.32h5.79l-5.37-10.59
		h-6.05l-5.23,10.59h5.79L132.51,157.56z M163.04,151.19h0.42c0.94,0,1.76,0.1,1.76,0.91c0,0.79-0.9,0.88-1.8,0.88h-0.38V151.19z
		 M157.69,158.88h5.35v-3.4h0.1l2.39,3.4h6.31l-3.27-3.44c-0.3-0.31-0.64-0.48-0.92-0.63v-0.08c2.04-0.48,2.91-1.15,2.91-2.75
		c0-2.67-2.87-3.68-6.27-3.68h-6.61V158.88z M185.28,158.08c1.7,0.6,3.89,0.97,5.79,0.97c3.25,0,6.53-1.25,6.53-3.78
		c0-1.8-1.68-2.67-3.99-3.03l-1.24-0.2c-0.42-0.07-1.1-0.13-1.1-0.52c0-0.43,0.7-0.56,1.18-0.56c1.18,0,2.24,0.35,3.17,0.8
		l1.48-2.71c-1.48-0.63-3.05-0.93-4.77-0.93c-3.27,0-6.53,1.4-6.53,3.92c0,1.66,1.8,2.54,3.93,2.81l1.1,0.14
		c0.5,0.07,1.22,0.11,1.22,0.59c0,0.48-0.86,0.63-1.4,0.63c-1.26,0-2.44-0.43-3.41-0.97l-0.28-0.15L185.28,158.08z"/>
</g>
</svg>
