<svg xmlns="http://www.w3.org/2000/svg" width="247" height="228.63" viewBox="0 0 247 228.63">
 <g transform="matrix(1.3333 0 0 -1.3333 -105.55 927.22)">
  <path d="m221.91 550.7v12.083l1.2853 0.56138c5.6326 2.4644 9.7503 7.169 12.309 14.029v-26.674zm-89.292 0.35456v11.622c0.82193-5.0014 3.6141-8.8572 6.7796-11.622zm5.6044 30.063c-3.3965-3.4918-5.0309-7.6794-5.6044-11.186v21.155c1.6197-3.4435 3.4287-6.8467 5.6044-9.9692m106.8 6.883c1.0328 1.856 1.9648 3.7685 2.8351 5.681l1.8104-1.7849 1.519 3.8236c1.6264 4.0948 2.7129 8.5107 3.2085 12.986l1.4505-1.0261 0.52646 4.573c0.30487 2.643 0.39888 5.3627 0.28069 8.0917 4.6186 10.708-2.1743 22.024-2.4725 22.512l-1e-3 1e-3c-0.6742 1.1013-1.5928 2.0588-2.7854 2.9023-0.84744 4.0989-2.635 7.9654-5.2297 11.28l0.31695 5.8703c0.0403 0.71851 0.094 1.7016-0.20816 2.7518-0.30218 1.0422-0.8555 1.8305-1.3497 2.49-2.3355 3.0983-5.2216 5.8273-8.4516 8.0044 2.4255 4.162 3.2286 9.2467 2.0857 13.88l-0.77357 3.1346-2.9614-1.2866c-0.60167-0.26054-1.5391-0.23234-2.3704-0.18265-1.2423 0.0725-2.4752 0.20146-3.7806 0.33576-1.989 0.20682-4.0465 0.42036-6.147 0.42439l-0.42305 1e-3c-2.2845 7e-3 -4.4494 0.0148-6.8467-0.94548-4.7274 2.0924-10.66 2.5262-17.657 1.2906-0.0295-4e-3 -0.0591-9e-3 -0.0859-0.0148-10.275 2.8002-19.005 2.0024-24.521 0.83939-5.877-1.2383-11.007-3.328-15.274-6.2182-1.9689 0.57078-3.8826 0.86624-5.4083 1.065-5.2351 0.67957-11.589 0.0833-13.405-0.11416-0.46469 0.12356-1.2745 0.35725-1.9057 0.54124-1.5713 0.45394-3.195 0.92399-4.1204 1.1066l-1.8037 0.35993-1.0086-1.5391c-2.7263-4.158-3.1225-11.862-0.92131-17.917 1.2248-3.3683 3.1762-6.0624 5.6648-7.8942-4.761-4.3138-12.619-13.468-15.468-28.677l-0.75747-4.0465 3.6651 0.80178c-0.87564-5.7642-0.99651-11.254-0.37335-16.665l0.5278-4.573 1.7271 1.2221c0.19608-2.0293 0.49691-4.0519 0.89713-6.0489h-20.696v-16.725h-24.69v-26.153l24.844-0.0443v-18.054l0.0712-0.6433c2.0441-12.266 12.418-17.268 17.615-18.201l0.80312-0.0792c3.4932-0.0685 21.623-0.41096 35.649-0.41096 12.875 0 15.831 0.28069 16.968 0.52512 5.1558 1.1107 10.463 4.6979 11.112 5.1464l0.1719 0.12625c7.627 5.9146 7.6444 15.12 7.6216 16.095-0.0121 6.4639-3.14 11.075-3.7524 11.914-0.81521 1.1362-1.7634 2.1381-2.7451 3.0084h6.6197v-17.482l0.0376-0.62853c1.8144-14.693 17.432-18.354 18.096-18.501l0.55198-0.1249h31.409l0.4996 0.10072c14.577 2.9332 17.901 16.072 18.037 16.632l0.14101 0.58959v45.876z" fill="#fff"/>
  <path d="m182.61 691.97c-2.7854-0.04455-5.8426-0.32926-9.0615-1.0078-5.4889-1.1576-10.879-3.2357-15.375-6.561-1.9984 0.71448-4.114 1.0986-6.2212 1.3726-5.7709 0.7494-13.214-0.17432-13.214-0.17432-0.70374 0.11684-4.9264 1.4473-6.397 1.7388-3.5603-5.4298-2.6721-20.754 7.4502-23.808-0.27934-0.20548-13.904-9.015-17.773-29.688 1.0811 0.23637 2.685 1.1698 3.7661 1.4048-1.4814-6.8306-2.0032-13.559-1.2041-20.502 0.55332 0.39216 1.4535 0.78264 2.0068 1.1748 0.0658-4.5488 0.7078-9.1634 1.8735-13.613h-21.406v-16.727h-24.69v-20.703l24.844-0.04394v-20.776l0.03369-0.19629c1.7929-10.764 10.863-15.149 15.409-15.964l0.18603-0.03369 0.18897-0.00293c3.0849-0.0604 21.471-0.41162 35.593-0.41162 8.0849 0 14.771 0.11516 16.393 0.46435 4.7234 1.0167 9.8619 4.5327 10.078 4.6831l0.10987 0.0791c6.5942 5.1115 6.5844 13.137 6.5669 13.934-0.0121 5.7562-2.9289 9.9018-3.2432 10.332-3.0325 4.2332-8.523 6.436-8.7554 6.5273l-0.18604 0.07178-3.394 0.72363h21.154v-20.208l0.01904-0.29443c1.5807-12.806 15.398-16.043 15.984-16.175l0.25782-0.05859h30.833l0.23438 0.04687c12.896 2.5934 15.805 14.105 15.923 14.594l0.06592 0.27393v42.828h-20.565c2.776 3.9135 4.8316 8.4343 6.7266 12.823 0.41231-0.40693 1.4144-0.95989 1.8267-1.3682 2.1045 5.2982 3.2332 11.127 3.3164 16.828 0.46737-0.33172 1.226-0.66266 1.6934-0.9917 0.32232 2.7988 0.38882 5.5577 0.23437 8.3042 4.5085 9.4642-1.8286 20.214-2.0435 20.563-0.68225 1.1147-1.7088 1.968-2.9282 2.6704-0.65137 4.0881-2.3546 8.0076-4.9131 11.262-0.19743 0.25114-0.40318 0.50506-0.5039 0.80859-0.10476 0.31157-0.08781 0.64801-0.07031 0.97705 0.1061 1.9702 0.2147 3.9403 0.3208 5.9092 0.0336 0.61778 0.06496 1.2506-0.10694 1.8442-0.17191 0.59495-0.53618 1.114-0.9082 1.6069-2.6874 3.5684-6.122 6.5688-10.018 8.7539l-0.11132 0.12598c3.1856 3.8074 4.4857 9.1628 3.2944 13.994-1.1228-0.48886-2.3932-0.47682-3.6167-0.4043-3.2635 0.19071-6.506 0.74768-9.7749 0.7544-2.8082 7e-3 -4.8338 0.08671-7.2861-1.2349-7.6498 4.0599-17.39 1.4613-17.868 1.519-0.48147 0.05842-6.3916 2.0878-14.748 1.9541zm0.92871-4.1191c7.8064 0.08594 13.783-2.0786 13.783-2.0786s11.251 2.2412 17.798-2.1665c-2.3154-0.83401-4.4726-2.1079-6.3018-3.7544 4.342 0.98578 10.315 0.99587 12.771 0.20215 1.805-0.82327 2.8028-2.1671 3.8423-3.6592-2.6175-0.40828-5.124-1.5273-7.1104-3.2812 3.3347-0.05506 6.6692-0.22126 9.9932-0.49658 0.89982-0.07521 1.8189-0.16473 2.6382-0.54346 0.86625-0.4029 1.5536-1.1016 2.209-1.7959 0.0282-0.0296 0.05676-0.06132 0.08496-0.09082-0.81521 0.14236-1.6878 0.2351-2.6279 0.2915 4.2748-3.4207 5.1041-6.5144 5.0991-6.6299-0.00537-0.12624-1.0686-3.0802-3.8057-5.9502 2.8687 0.92803 4.9082 1.916 6.5816 3.3852-0.1343-1.1388-0.88583-2.2087-1.834-2.9004-1.1966-0.87027-2.6616-1.2679-4.0825-1.6802-0.23503-0.06715-0.47481-0.13926-0.67089-0.28565-0.13699-0.10341-0.24534-0.23936-0.3501-0.375-0.72254-0.92668-1.3749-1.9064-1.9497-2.9312 0.70105-0.53183 1.4039-1.0634 2.105-1.5952 1.2638-1.4303 2.8506-5.2494 2.8667-5.3071 0.03626 0.01746 3.6824-3.1357 4.9394-5.165 0.26451 0.91191 0.81314 1.6933 0.00733 2.8066 1.942-0.73328 6.9112-2.9509 7.7842-3.8467 2.4174-2.4779 3.2608-6.1118 3.3589-9.5728 0.10341-3.6342-1.0657-9.9111-3.6255-11.316-2.5316-1.3887-4.9149-1.2747-7.0825-0.90674 0.10879 0.1061 0.21775 0.21323 0.32519 0.31933 0.73195 0.72523 6.0559 5.1303 7.689 9.479 0.08192 0.22026 0.19954 0.43453 0.20654 0.6709 0.0027 0.15042-0.03108 0.29892-0.06738 0.44531-0.48483 2.0159-1.1405 3.9903-1.957 5.896 0.0349-1.4706 0.01723-2.9429-0.05127-4.4121-0.77761-0.509-1.5139-1.0825-2.2002-1.7124-2.5195 0.34112-5.0218 0.80434-7.4956 1.3872-0.20414 0.0484-0.41452 0.09744-0.62403 0.07324-0.17459-0.02148-0.33849-0.09286-0.50097-0.16406-1.1483-0.50498-2.297-1.0096-3.4453-1.5132-1.6949 1.1926-3.3866 2.386-5.0815 3.5786 1.1375-2.1649 2.5311-4.1967 4.144-6.0366 0.13161-0.15042 0.26756-0.30076 0.43946-0.40283 0.18534-0.10873 0.40144-0.15183 0.6123-0.19483 2.6283-0.52781 5.2652-1.0722 7.79-1.9761l-0.9624-0.97559c-1.3846 0.35993-2.7711 0.71967-4.1558 1.0796-0.00403-0.88236 0.71671-1.5708 1.1572-2.335 0.71449-1.2436 0.65467-2.8795-0.10547-4.0869-11.471-2.9385-23.999-1.5892-34.56 3.7734-1.7983 0.91459-3.5706 1.9657-5.0815 3.2886 1.1845-0.54123 2.4328-0.95893 3.6885-1.3081 5.4016-1.5028 11.149-1.8531 16.652-0.78808-6.6331 0.96025-13.117 2.9554-19.144 5.8872-0.15982 0.0779-0.31907 0.15671-0.47754 0.23731 0.94145 1.0032 2.4906 1.4014 3.8994 1.2832 1.6774-0.14102 3.9713-0.95804 5.5869-1.4268 6.8171-1.9782 8.2795-1.6114 12.69-0.51416-3.9041 1.108-7.8058 2.2158-11.71 3.3237-2.0709 0.58821-4.1598 1.1829-6.0615 2.1929 1.527 1.7096 4.0623 2.1416 6.3428 1.8999 0.8367-0.08864 9.4898-1.9036 12.338-2.9458-3.6382 3.6382-9.1644 5.6639-13.9 6.6094 1.1913 0.64062 2.413 1.1956 3.7251 1.522 4.5273 1.1241 9.2132-0.66473 13.534-2.4214-1.8506 2.7854-4.9863 4.5389-8.2485 5.2749-3.2635 0.73597-6.6654 0.54525-9.98 0.09668-3.3146-0.44991-6.5952-1.154-9.9272-1.4414-2.8633-0.24574-7.3941-0.32321-10.216 0.21534-0.59764 0.11282-2.7076 1.9863-3.1494 2.6162-0.4902 0.70105-0.67051 8.3891-0.85987 8.8242-0.20414 0.462-4.2718 3.8971-6.1318 4.9702 0.58422-1.3215 2.1032-4.7585 2.1489-5.1856 0.04432-0.42571-1.8337-9.4884-2.6865-13.597 2.7183-1.9017 5.4114-2.6503 8.3686-3.0102 1.4558-0.17728 10.997-0.77002 17.424 1.27-0.0322-0.08058-0.06595-0.16103-0.09815-0.24023-7.9358-5.7333-13.768-14.34-16.099-23.854 1.5552 0.37336 2.7401 1.2481 4.0415 0.5376 0.60701-0.33172 1.1215-0.78641 1.5835-1.3008 3.2098-4.5313 4.7527-10.132 6.6182-15.423 0.8877-2.5141 1.8771-5.0158 3.3369-7.2466 1.4599-2.2307 3.4274-4.194 5.8623-5.2778 6.5015 4.017 14.879 4.8337 22.034 2.1504 1.0408 1.5767 1.823 3.1774 2.3804 4.8091 1.018-2.9371 1.3088-6.1247 0.81591-9.1948-0.32904 0.27129-0.65839 0.54316-0.98877 0.81445-1.061-3.5415-2.7462-6.8945-4.9541-9.8599-0.13296 0.69299-0.26536 1.3872-0.39697 2.0815-2.8781-3.1829-6.2097-5.9554-9.8613-8.209-5.3949 3.0003-10.483 6.5532-15.161 10.585-0.11013-1.0234-0.21959-2.0468-0.33106-3.0688-2.6927 4.1472-5.2962 8.3538-7.8076 12.615-1.4343 2.4349-2.8472 4.9056-3.7471 7.585-0.12488-0.98577-0.19377-1.9768-0.21387-2.9692-4.4816 2.2992-9.9895 3.5146-15.035 3.7456-9.8617 0.4526-19.449-1.227-28.944-3.9346-3.0043 5.963-5.4185 12.223-7.1953 18.659-0.67419-0.36664-1.2816-0.85866-1.7812-1.4429-1.0543 6.6681-1.2911 13.467-0.70019 20.191-0.57346-0.35859-1.1463-0.71808-1.7197-1.0767 0.34381 5.5077 1.4382 10.969 3.2432 16.184-1.0543-0.66345-2.1098-1.3271-3.1641-1.9892 2.3583 9.9329 16.948 19.99 17.75 25.311-2.7035-0.32233-5.5904-0.61655-8.0186 0.61231-1.0865 0.54929-2.0146 1.3785-2.811 2.2998-2.502 2.8902-3.7872 6.8013-3.4863 10.613 4.0559-1.4665 8.1567-2.9538 11.763-5.3188 2.1622-1.4182 4.1327-3.1446 6.4453-4.3022 2.0508-1.0288 4.5039-1.5592 6.6621-0.88769-3.4421 4.7422-8.2947 8.4606-13.793 10.491 3.6288 0.21085 7.2984 0.28478 10.874-0.37061 3.5751-0.65674 7.083-2.0916 9.7368-4.5762-0.46199 2.0454-1.1401 3.4872-2.8242 4.7725 6.334 4.8662 13.512 6.295 19.583 6.3618zm3.8921-2.1797c-1.9539 0.02261-3.8954-0.32759-5.6338-1.1997-1.3833-0.69434-2.5905-1.69-3.7602-2.7026-5.4942-4.761-15.751-15.809-15.857-16.043-0.1531-0.33709-4.9743-25.406 6.1875-42.743 8.0997 0.3935 14.924 3.5844 20.128 9.6226-5.9737-1.335-12.518-2.9059-18.116-2.0142-2.4215 10.301-4.7176 20.896-3.1436 31.553 4.4198 5.3183 12.441 14.278 15.596 17.15 1.4491 1.3188 3.021 2.6006 4.8999 3.1553 1.3309 0.39216 2.7421 0.39942 4.1294 0.3457 2.6014-0.0994 5.1934-0.39445 7.7505-0.8833-2.8122 1.335-5.6531 2.681-8.6924 3.3472-1.1402 0.2503-2.3169 0.39805-3.4893 0.41162zm35.121-0.47754c3.1198-0.00538 6.2387-0.09116 9.3545-0.25635-0.24577-2.3906-1.3936-4.6726-3.1436-6.3164-3.5993 4.6079-8.1833 6.2758-8.3203 6.3618 0.66748 0.18536 1.4137 0.21094 2.1094 0.21094zm-32.369-6.1069c-0.7876-0.01127-1.5709-0.08972-2.3481-0.25928-0.40827-0.0886-0.82257-0.20906-1.1543-0.46289-0.1719-0.13296-0.31613-0.29758-0.45849-0.46143-1.4921-1.711-2.9844-3.4218-4.4751-5.1328-0.98175-1.1268-1.9647-2.254-2.8887-3.4277-0.60704-0.77089-1.19-1.56-1.7446-2.3672-0.12758-0.18533-0.25476-0.37874-0.30176-0.59766-0.0524-0.25248 0.00936-0.51314 0.08496-0.76025 0.48348-1.5848 1.5344-2.9507 2.77-4.0547 0.40693-0.36261 0.83537-0.69855 1.2759-1.0195-0.48751 1.2302-0.9744 2.4582-1.4619 3.687-0.0967 0.24174-0.19386 0.49934-0.15088 0.75586 0.0363 0.21219 0.1638 0.39523 0.29004 0.56982 2.2589 3.1359 4.8441 6.037 7.7007 8.6411 0.31561 0.28741 0.64593 0.57981 1.0488 0.72217 0.36128 0.12759 0.75249 0.12402 1.1352 0.11865 7.2066-0.0994 14.401-1.036 21.393-2.7832-3.8276 3.1762-8.8195 4.4984-13.644 5.7085-2.3157 0.58019-4.7079 1.1573-7.0708 1.1235zm4.4429-7.0312c-2.87 0-8.1211-3.0548-9.5259-9.0366 4.1526-3.2984 5.8463-2.7818 10.014-3.2988-2.5652 2.138-4.3452 4.504-4.3506 4.6289-4e-3 0.11684 0.68791 4.165 3.8628 7.7066zm11.054-1.4033c-5.0994-0.30486-8.3061-1.6515-10.2-6.5347 2.1381-3.1144 4.5806-4.6446 8.9077-6.0454-2.7384 2.87-3.8018 5.8238-3.8071 5.9487-4e-3 0.11685 0.8243 3.212 5.0991 6.6314zm21.458-1.3623c2.0736-4.2748 2.6037-5.5698 2.8696-7.4165 0 0-0.74161-2.3746-1.8926-4.7974 2.4604 1.0006 4.0297 2.3828 5.8858 4.7666-1.1228 5.188-4.248 7.4473-6.8628 7.4473zm-15.719-0.34863c-2.6148 1e-3 -5.74-2.2592-6.8628-7.4473 1.856-2.3838 3.4268-3.7646 5.8872-4.7651-1.151 2.4228-1.8926 4.7959-1.8926 4.7959 0.26591 1.8466 0.79458 3.1417 2.8682 7.4165zm4.8076-0.73975c-1.4934-1.531-2.7247-3.7513-2.8389-5.9458 3.1587-3.379 6.6416-5.9395 10.695-7.0649 0.33172-0.30486 3.5778 7.2335 3.2944 7.8003-1.1483 2.3006-2.6877 4.2838-5.5591 5.2104l2.1797-3.9844c-0.0645-1.4491-0.39953-2.8114-1.1221-3.687-2.126 0.81785-4.223 2.4918-5.8359 4.0107-0.24174 0.22429-0.52022 2.0839-0.81299 3.6606zm-60.029-8.4814c-5.2982-11.12-5.6111-26.914-3.3428-39.045 0.0994-0.52646 0.16537-1.068 0.38965-1.5542 0.18937-0.40425 2.9583-3.9153 4.0649-5.3174-0.0564 1.3578-0.11351 2.7145-0.16992 4.0723 0.8179-1.1254 3.0968-4.26 3.5508-4.5527 0.44051-0.28203 19.735-7.5693 26.577-14.438-2.4416 6.3659-6.7773 11.992-12.311 15.977 2.8834 1.7956 5.4086 4.1665 7.3828 6.9331-6.1725-2.6699-13.083-2.9662-19.806-2.981-6.5243 10.731-7.3669 30.898-6.3354 40.906zm28.629-1.9673c1.6331-1.57 3.5481-2.8418 5.6177-3.7617 0.18131-0.93071 0.45672-1.8462 0.77636-2.7393 0.45931-1.2906 1.0185-2.5612 1.8472-3.6504 0.82864-1.0905 1.9489-1.9975 3.2637-2.3789-1.715 2.0441-2.4483 4.8712-1.9702 7.4941 0.39217-0.0819 0.78594-0.15319 1.1821-0.21094 0.13699-2.4712 0.80416-4.8212 0.98144-5.0361 0.66211-0.79238 2.7927-1.7967 3.4468-1.9351 4.4158-0.93071 8.356 1.5933 11.575 0.61963 0.99786-0.4432 2.0655-0.80689 2.1958-0.78809 2.0038 0.29546 4.4743 2.368 6.3062 2.8286 0.25383 0.0645 2.9377-0.46955 3.898-0.76905-1.2342 1.9393-3.8355 3.7919-5.1167 3.8335-0.20279 7e-3 -1.3312-0.87359-1.667-1.251-0.36799 1.6143-1.4955 3.0481-2.9956 3.7559 0.67419-1.2718 0.61647-2.9014-0.14502-4.1235-3.653 3.2957-8.9442 4.9719-11.849 6.6372-0.45797 0.26323-12.121 0.71227-17.347 1.4751zm-34.834-0.17432c-3.4717-4.2157-12.73-16.273-10.778-36.425 0 0 4.4991-11.416 8.4609-16.803 0.26726-0.36128 19.266-2.906 27.363-2.7905-10.518 4.0841-23.358 10.872-24.149 11.82 0 0-5.3908 10.001-5.6836 11.202-0.10744 0.44051 0.29204 19.777 4.7871 32.997zm86.531-1.8472c0.0517 5.2e-4 0.10173 6.2e-4 0.14941 0 0.56944-0.9804 0.85859-2.222 0.45703-3.2856-0.36799-0.97772-1.5125-1.9542-2.4741-2.3584-0.22831 0.3371-0.44136 0.83931-0.68847 1.1616 1.3081 0.20414 2.3042 1.2531 2.3042 2.5195 0 0.73865-0.3406 1.4032-0.88183 1.8706 0.32551 0.05758 0.7719 0.08863 1.1338 0.09229zm3.5742-0.05127c0.51975-1.7674 0.21713-3.9057-0.99024-6.4131 1.7607 0.58824 2.4178 1.5493 2.6851 2.6089 0.26054-0.50497 0.52108-1.0104 0.75879-1.5234 0.58556-1.2692 1.0419-2.6722 1.0298-4.0488-2.4765 0.8461-4.9526 1.6716-6.6958 3.0146 0.56272 0.54526 1.9752 2.2188 2.0947 2.5049 0.11013 0.26323 0.33703 2.7303 0.27393 3.6812 0.0658 0.10473 0.87865 0.0576 0.84375 0.17578zm-6.4263-1.062c0.29418 0.01265 0.52451-0.13887 0.5581-0.39698 0.04164-0.33173-0.25395-0.71139-0.66357-0.85107-0.40693-0.13833-0.77292 0.01544-0.81592 0.34717-0.04298 0.33038 0.25383 0.71128 0.66211 0.84961 0.08931 0.03055 0.17691 0.04772 0.25928 0.05127zm-32.832-0.06885c0.14773-0.0107 0.41828-0.12643 0.76612-0.30908-0.88908-0.47945-1.4868-1.3654-1.4868-2.3848 0-1.5243 1.3377-2.7598 2.9883-2.7598 1.4639 0 2.6792 0.97198 2.937 2.2559 0.66211-0.47677 1.1312-0.83434 1.1836-0.9082-0.38544-0.95623-1.0769-1.7899-1.9512-2.3379-0.99513-0.6245-2.219-0.87417-3.3794-0.69287-1.198 0.18803-2.3314 0.85175-3.0029 1.8604s-0.837 2.3592-0.34277 3.4658c0.41231 0.92534 1.301 1.6292 2.2881 1.8106zm1.5762-1.2349c0.28955-0.00195 0.54187-0.11157 0.6416-0.30175 0.1437-0.27532-0.0893-0.6168-0.52442-0.76319-0.43514-0.14638-0.90379-0.04238-1.0488 0.23291-0.14505 0.27666 0.0906 0.61839 0.52442 0.76612 0.13556 0.04574 0.27561 0.06681 0.40723 0.06591zm-7.4121-35.65c2.0016 0.00567 4.0438-0.82872 5.6631-2.064 2.2563-1.7204 3.8758-4.1213 5.5371-6.4219 0.46334-0.6433 0.93534-1.2792 1.4121-1.9131-0.31427-0.16922-0.61921-0.35592-0.92139-0.54932-0.1155-0.07521-0.22873-0.15169-0.34423-0.22559-0.06043-0.0322-0.12108-0.06448-0.18018-0.09668-0.44051-0.24443-0.8504-0.53473-1.2305-0.8584-0.77224-0.56137-1.5037-1.1722-2.1255-1.9028-0.08326-0.09804-0.1611-0.1981-0.2417-0.29883-0.41768 0.37873-0.81536 0.7741-1.1807 1.2173-0.51303 0.62182-0.9622 1.2944-1.3799 1.9834-0.50766 0.83938-0.97709 1.6982-1.4458 2.5591-1.4464 3.2783-2.8937 6.7377-4.9351 8.4272 0.45201 0.09619 0.91064 0.14224 1.3726 0.14355zm45.646-3.4922c-1.1644-4.4534-4.5198-7.0989-8.8887-8.5708 0.53721 1.8319 0.91964 3.7111 1.1426 5.6074-4.5864-0.19874-9.1775-0.261-13.767-0.1831-1.9111-2.8311-4.9946-4.8363-8.3482-5.4756 0.56809 2.7411 0.89323 5.5316 0.96973 8.3291 4.9007-1.7822 13.962-1.8631 21.053-0.14942 2.6887 0.3492 7.8384 0.44238 7.8384 0.44238zm5.6895-0.73828c-0.14236-1.762-0.35176-3.5202-0.62842-5.2661-0.42036 0.49289-0.93203 0.90705-1.5015 1.2173-1.5002-5.4298-3.5362-10.71-6.0718-15.74-1.1671 0.33173-2.3357 0.64472-3.5068 0.9375-0.38007 2.13-1.0223 4.2118-1.9087 6.186 2.4094 1.061 4.768 2.3727 6.5435 4.21 1.4961 1.5109 4.309 5.0446 5.9663 8.0772 0.27264 0.0188 0.66155 0.16305 1.1074 0.37793zm-28.815-8.3174c-0.13161-1.6909-0.542-3.36-1.2041-4.9219-0.47274-0.36664-1.0661-0.60758-1.6597-0.68408-0.84072-0.10878-1.6819 0.03768-2.5078 0.25928-0.12893 0.42305-0.26108 0.84393-0.39404 1.2656 2.079 1.1174 4.0224 2.4896 5.7656 4.0811zm-9.8027-1.2744c0.43111-3.3508 1.1685-6.6626 2.1973-9.8818 0.23771 0.56003 0.47714 1.12 0.71485 1.6787 3.6584 0.05914 7.3161 0.04296 10.973-0.04834l0.11573-1.1177c0.69837 0.74134 1.7402 2.1299 1.7402 2.1299l-1.1221 0.67529c2.04 1.3591 3.1885 2.894 5.1694 4.875 0.94952-3.8155-0.08829-6.6784-1.2715-8.8125-0.31964-0.57753-2.2915-2.0197-3.5889-0.61084-3.5778-0.0322-7.1551-0.06448-10.733-0.09668-0.60838-0.00537-1.226-0.01181-1.8062-0.19043-0.86222-0.26592-1.5919-0.89498-2.4756-1.0723-1.2866-0.25786-2.6198 0.55289-3.2725 1.6904-0.65136 1.1375-0.725 2.5246-0.54638 3.8232 0.37202 2.6981 1.7954 5.2363 3.9053 6.958zm-9.4248-1.1631c0.12222-0.15982 0.24595-0.31723 0.37354-0.47168 0.47811-0.57884 1.0044-1.1176 1.5644-1.6172 0.17862-0.16117 0.36154-0.32431 0.55225-0.47607-0.21622-0.58824-0.3911-1.1908-0.52002-1.8032-0.05778-0.27398-0.10781-0.54952-0.14941-0.82618-0.25652 0.74134-0.51107 1.4807-0.76758 2.2207-0.34247 0.99115-0.68927 1.9852-1.0532 2.9736zm-89.29-2.2163h19.113v-52.329c0.043-0.13968 0.33532-0.92578 1.7227-1.6524h41.329c0.10207 0.0618 0.2047 0.13182 0.28125 0.19629-0.0645 0.0255-0.1544 0.05553-0.27392 0.08643l-21.987 3.8159c-0.1249 0.0416-12.567 4.3242-12.132 15.724-0.0336 0.75209-0.36352 13.815 14.764 16.806l0.10253 0.00879 35.761-0.00293c-0.0242 0.0671-0.04019 0.12475-0.06299 0.1919 0.13161-0.39216 0.27743-0.80779 0.44531-1.251h-36.091c-14.515-2.8969-13.892-15.195-13.859-15.716l0.00147-0.02783-0.00147-0.0293c-0.40961-10.325 10.663-14.432 11.373-14.684l21.904-3.7983c0.31158-0.0765 1.1466-0.28528 1.2231-0.97559 0.0752-0.69568-0.72748-1.176-1.0767-1.3506l-0.11279-0.05566h-41.843l-0.11133 0.05566c-2.1314 1.0664-2.3883 2.373-2.4111 2.5181l-0.00586 0.08203v51.325h-16.991v-16.723h-24.691v-14.868l24.847-0.04541v-23.449c1.8856-11.156 12.157-13.357 12.996-13.519 1.672-0.0322 47.123-0.90364 51.272-0.00879 4.162 0.89579 8.9868 4.1982 9.0352 4.2305 5.603 4.3446 5.4138 11.485 5.4111 11.558 0 5.0108-2.6538 8.6252-2.6807 8.6602-2.4174 3.3844-6.9651 5.3246-7.4312 5.5166l-22.742 4.8633c-0.19877 0.0792-0.80092 0.32205-0.74854 0.86865 0.0336 0.35187 0.34171 0.61095 0.84668 0.70899l0.10107 0.00879h42.209c0.59227-0.49557 1.2117-0.98026 1.8604-1.4517v-21.645c1.3068-10.396 12.781-13.423 13.67-13.641h30.214c10.614 2.1622 13.374 11.529 13.595 12.347v39.555h-16.594v-36.105c0-0.79103-0.6818-1.1454-1.1411-1.1924l-0.0542-0.00293h-22.632c-0.52109 0-0.87363 0.16035-1.0415 0.47461-0.13027 0.24443-0.10101 0.50778-0.01904 0.71192v17.275c0.35858 0.24845 0.7465 0.52399 1.144 0.81006-0.0269-0.0201-0.05659-0.04273-0.08349-0.06153v-18.149h22.595c0.0577 0.0121 0.16992 0.04477 0.16992 0.13477v37.166h18.718l-0.01612-40.808c-0.0255-0.10744-2.7354-10.845-14.481-13.207l-0.10547-0.01025h-30.39l-0.05713 0.01318c-0.13027 0.0295-13.124 3.0695-14.547 14.59l-0.0044 0.06591v21.494c-0.15982 0.25786-0.36728 0.50976-0.47607 0.57422h-40.146l20.506-4.3843c0.21085-0.0833 5.2223-2.091 7.9365-5.8931 0.11012-0.14774 2.8857-3.9109 2.8857-9.2695 0.0107-0.29681 0.20529-7.7411-5.8476-12.434-0.22697-0.15713-5.0719-3.472-9.438-4.4121-1.484-0.31963-7.7949-0.42627-15.519-0.42627-14.792 0-34.775 0.39037-36.041 0.41455l-0.0835 0.00879c-0.11819 0.0201-11.875 2.2618-13.903 14.438l-0.00879 0.08789v22.436l-24.845 0.04248v16.991h24.691v16.724zm20.878-2.7773c0.20549-0.57346 0.40999-1.1469 0.63428-1.7109 0.48886 0.48349 1.6762 1.1394 2.165 1.6216 2.4966-5.783 5.2153-11.766 9.0952-16.727 12.588 9.5703 30.77 12.088 45.042 5.3071 0.0658-0.31964 0.18101-0.80506 0.35157-1.4121-0.0175 0.0591-0.03794 0.12964-0.05274 0.18604l-35.524 0.01171-0.22705-0.04687c-13.562-2.6793-16.564-13.296-16.266-18.655-0.32769-10.161 8.613-15.86 13.406-17.458l0.16992-0.05712 2.4243-0.42041h-20.856c-0.17325 0.1155-0.28807 0.21629-0.36328 0.2915v49.069zm105.18-11.019c1.2812-0.693 2.1446-1.2526 3.1626-1.9966v-36.699h-19.049v17.613c-0.0201-0.0161-0.04133-0.02921-0.06153-0.04541 1.0771 0.82462 2.0962 1.6644 2.7744 2.3467 0.0685-0.68225 0.13817-1.3626 0.20801-2.0435 8.3374 3.6463 11.66 12.573 12.965 20.824z" fill="#171796"/>
 </g>
</svg>